<svg width="10" height="10" viewBox="0 0 10 10" fill="none" xmlns="http://www.w3.org/2000/svg">
<path d="M4.61328 6.59375C4.80664 6.40039 5.12891 6.37891 5.30078 6.57227C5.51562 6.76562 5.51562 7.08789 5.32227 7.30273L3.28125 9.53711C3.08789 9.75195 2.72266 9.75195 2.5293 9.53711L0.488281 7.30273C0.294922 7.08789 0.294922 6.76562 0.509766 6.57227C0.617188 6.48633 0.746094 6.44336 0.875 6.44336C1.00391 6.44336 1.13281 6.48633 1.24023 6.59375L2.42188 7.86133V0.599609C2.42188 0.298828 2.63672 0.0625 2.9375 0.0625C3.2168 0.0625 3.45312 0.298828 3.45312 0.599609V7.86133L4.61328 6.59375ZM9.49023 2.46875C9.68359 2.68359 9.68359 3.00586 9.46875 3.19922C9.25391 3.39258 8.93164 3.37109 8.73828 3.17773L7.57812 1.91016V9.17188C7.57812 9.47266 7.3418 9.6875 7.0625 9.6875C6.76172 9.6875 6.54688 9.47266 6.54688 9.17188V1.91016L5.36523 3.15625C5.25781 3.28516 5.12891 3.32812 5 3.32812C4.87109 3.32812 4.74219 3.28516 4.63477 3.19922C4.41992 3.00586 4.41992 2.68359 4.61328 2.46875L6.69727 0.234375C6.89062 0.0195312 7.25586 0.0195312 7.44922 0.234375L9.49023 2.46875Z" fill="#404040"/>
</svg>
