<svg width="14" height="10" viewBox="0 0 14 10" fill="none" xmlns="http://www.w3.org/2000/svg">
<path d="M12.6875 2.88886L11.6229 4.2195C11.6156 4.17229 11.6076 4.12516 11.5989 4.07813C11.4616 3.33555 11.1566 2.62985 10.7023 2.01677C10.066 1.15819 9.17062 0.526806 8.14818 0.215781C7.12584 -0.095253 6.03055 -0.0694433 5.02389 0.289368C4.30514 0.545656 3.6588 0.961897 3.13127 1.5022C2.91994 1.71862 2.72772 1.95487 2.55762 2.20871L3.31035 2.71341C3.79719 1.98714 4.5047 1.43677 5.3283 1.14315C6.15181 0.849612 7.04791 0.828496 7.88438 1.08297C8.72093 1.33736 9.45346 1.85392 9.97401 2.55644C10.4133 3.14922 10.682 3.84794 10.7552 4.57711L8.76144 3.248L8.25875 4.002L11.3231 6.04496L13.3952 3.4549L12.6875 2.88886Z" fill="#121212"/>
<path d="M0 6.51386L0.707664 7.0799L1.77226 5.74925C1.7796 5.79647 1.78758 5.84359 1.79628 5.89063C1.93357 6.63321 2.23862 7.33891 2.69292 7.95198C3.3292 8.81056 4.22457 9.44195 5.24692 9.75297C6.26935 10.064 7.36464 10.0382 8.37121 9.67939C9.08996 9.4231 9.73639 9.00686 10.2639 8.46655C10.4747 8.25059 10.6667 8.01488 10.8365 7.76167L10.8376 7.76004L10.0848 7.25535L10.0838 7.25671C9.59692 7.98225 8.88986 8.53217 8.06689 8.82561C7.24329 9.11914 6.34719 9.14026 5.51073 8.88578C4.67426 8.6314 3.94173 8.11484 3.42118 7.41231C2.98183 6.81953 2.71313 6.12082 2.64 5.39165L4.63375 6.72075L5.13644 5.96675L2.07205 3.92379L0 6.51386Z" fill="#121212"/>
</svg>
