<svg width="24" height="18" viewBox="0 0 24 18" fill="none" xmlns="http://www.w3.org/2000/svg">
<g clip-path="url(#clip0_7624_51485)">
<path d="M0 0V17.9998H26.9997V0H0Z" fill="#3399CC"/>
<path d="M0 12V13H26.9997V12H0ZM0 14V15H26.9997V14H0Z" fill="#FFFF00"/>
<path d="M5.35127 1.0498L5.46002 1.1623L5.34752 1.0498H5.35127ZM5.23877 1.2748L5.35127 1.3873L5.23877 1.2748ZM5.46002 1.2748L5.57252 1.3873L5.46002 1.2748Z" fill="#99CCCC"/>
<path d="M5.23877 1.38754L5.35127 1.49629L5.23877 1.38379M5.46002 1.38379L5.57252 1.49629L5.46002 1.38379Z" fill="#CCCCFF"/>
<path d="M5.12646 1.60498L5.23896 1.71748L5.12646 1.60498Z" fill="#66CCCC"/>
<path d="M5.35141 1.60498L5.46016 1.71748L5.34766 1.60498H5.35141Z" fill="#CC6666"/>
<path d="M5.5726 1.60498L5.68135 1.71748L5.56885 1.60498H5.5726Z" fill="#66CCCC"/>
<path d="M5.12646 1.71729L5.23896 1.82979L5.12646 1.71729ZM5.57272 1.71729L5.68146 1.82979L5.56896 1.71729H5.57272Z" fill="#CCCCFF"/>
<path d="M5.23877 1.82617L5.35127 1.93867L5.23877 1.82617ZM5.46002 1.82617L5.57252 1.93867L5.46002 1.82617Z" fill="#FFCCCC"/>
<path d="M5.01758 1.93896L5.13008 2.05146L5.01758 1.93896Z" fill="#66CCCC"/>
<path d="M5.33248 1.2749L4.55623 4.21865L1.60498 5.0249L4.54498 5.79365L5.33248 8.73365L6.11623 5.79365L9.05623 5.00615L6.11623 4.2224L5.32873 1.2824L5.33248 1.2749Z" fill="#CC0000"/>
<path fill-rule="evenodd" clip-rule="evenodd" d="M5.25791 1.28614L4.49942 4.16254L1.33643 5.02663L4.48847 5.85083L5.33271 9.00264L6.173 5.85055L9.32503 5.00625L6.17293 4.16596L5.39581 1.26471L5.35442 1.2758L5.2705 1.24414L5.25498 1.27519L5.25791 1.28614ZM5.33022 1.55609L4.61318 4.27529L1.87367 5.0237L4.60162 5.737L5.33239 8.46519L6.0596 5.73728L8.78757 5.00657L6.05967 4.27936L5.33022 1.55609Z" fill="white"/>
<path d="M5.68115 1.93896L5.79365 2.05146L5.68115 1.93896Z" fill="#66CCCC"/>
<path d="M5.01758 2.04736L5.13008 2.15986L5.01758 2.04736ZM5.68133 2.04736L5.79383 2.15986L5.68133 2.04736Z" fill="#99CCFF"/>
<path d="M5.12646 2.16016L5.23896 2.27266L5.12646 2.16016ZM5.57272 2.16016L5.68146 2.27266L5.56896 2.16016H5.57272Z" fill="#FFCCCC"/>
<path d="M4.90479 2.26855L5.01729 2.38105L4.90479 2.26855Z" fill="#6699CC"/>
<path d="M5.16357 2.34375L5.20107 2.41875L5.16357 2.34375ZM5.60607 2.34375L5.64357 2.41875L5.60607 2.34375Z" fill="#CC3333"/>
<path d="M5.79395 2.26855L5.90645 2.38105L5.79395 2.26855Z" fill="#6699CC"/>
<path d="M4.90479 2.38135L5.01729 2.49385L4.90479 2.38135ZM5.79354 2.38135L5.90604 2.49385L5.79354 2.38135Z" fill="#99CCFF"/>
<path d="M5.01758 2.49023L5.13008 2.60273L5.01758 2.49023ZM5.68133 2.49023L5.79383 2.60273L5.68133 2.49023Z" fill="#FFCCCC"/>
<path d="M4.79639 2.60254L4.90889 2.71504L4.79639 2.60254ZM5.90264 2.60254L6.01514 2.71504L5.90264 2.60254Z" fill="#6699CC"/>
<path d="M4.79639 2.71143L4.90889 2.82393L4.79639 2.71143ZM5.90264 2.71143L6.01514 2.82393L5.90264 2.71143Z" fill="#99CCCC"/>
<path d="M4.79639 2.82373L4.90889 2.93623L4.79639 2.82373ZM5.90264 2.82373L6.01514 2.93623L5.90264 2.82373Z" fill="#CCFFFF"/>
<path d="M4.68734 2.93637L4.79609 3.04512L4.68359 2.93262L4.68734 2.93637Z" fill="#6699CC"/>
<path d="M4.90479 2.93637L5.01729 3.04512L4.90479 2.93262M5.79354 2.93262L5.90604 3.04512L5.79354 2.93262Z" fill="#FFCCCC"/>
<path d="M6.01514 2.93637L6.12764 3.04512L6.01514 2.93262V2.93637Z" fill="#6699CC"/>
<path d="M4.68734 3.04492L4.79609 3.15742L4.68359 3.04492H4.68734Z" fill="#99CCCC"/>
<path d="M4.94238 3.12012L4.97988 3.19512L4.94238 3.12012ZM5.82738 3.12012L5.86488 3.19512L5.82738 3.12012Z" fill="#CC3333"/>
<path d="M6.01514 3.04492L6.12764 3.15742L6.01514 3.04492Z" fill="#99CCCC"/>
<path d="M4.68734 3.15771L4.79609 3.27021L4.68359 3.15771M6.01484 3.15771L6.12734 3.27021L6.01484 3.15771Z" fill="#CCFFFF"/>
<path d="M4.79639 3.26611L4.90889 3.37861L4.79639 3.26611ZM5.90264 3.26611L6.01514 3.37861L5.90264 3.26611Z" fill="#FFCCCC"/>
<path d="M4.5752 3.375L4.6877 3.4875L4.5752 3.375Z" fill="#99CCCC"/>
<path d="M4.83398 3.4502L4.87148 3.5252L4.83398 3.4502ZM5.94023 3.4502L5.97773 3.5252L5.94023 3.4502Z" fill="#CC3333"/>
<path d="M6.12354 3.375L6.23604 3.4875L6.12354 3.375Z" fill="#99CCCC"/>
<path d="M4.5752 3.4873L4.6877 3.5998L4.5752 3.4873ZM6.12395 3.4873L6.23645 3.5998L6.12395 3.4873Z" fill="#CCCCFF"/>
<path d="M4.68734 3.6001L4.79609 3.7126L4.68359 3.6001M6.01484 3.6001L6.12734 3.7126L6.01484 3.6001Z" fill="#FFCCCC"/>
<path d="M4.4624 3.71273L4.5749 3.82148L4.4624 3.70898V3.71273Z" fill="#99CCCC"/>
<path d="M4.72494 3.78369L4.75869 3.85869L4.72119 3.78369M6.04869 3.78369L6.08619 3.85869L6.04869 3.78369Z" fill="#CC3333"/>
<path d="M6.23633 3.71273L6.34883 3.82148L6.23633 3.70898V3.71273Z" fill="#99CCCC"/>
<path d="M4.4624 3.82129L4.5749 3.93379L4.4624 3.82129ZM6.23615 3.82129L6.34865 3.93379L6.23615 3.82129Z" fill="#CCCCFF"/>
<path d="M4.5752 3.93018L4.6877 4.04268L4.5752 3.93018ZM6.12395 3.93018L6.23645 4.04268L6.12395 3.93018Z" fill="#FFCCCC"/>
<path d="M4.3501 4.04248L4.4626 4.15498L4.3501 4.04248Z" fill="#99CCCC"/>
<path d="M4.5752 4.04248L4.6877 4.15498L4.5752 4.04248ZM6.12395 4.04248L6.23645 4.15498L6.12395 4.04248Z" fill="#CC3333"/>
<path d="M6.34502 4.04248L6.45752 4.15498L6.34502 4.04248ZM4.02002 4.15498L4.13252 4.26373L4.02002 4.15123V4.15498Z" fill="#99CCCC"/>
<path d="M4.13232 4.15137L4.24482 4.26387L4.13232 4.15137ZM6.56982 4.15137L6.67857 4.26387L6.56607 4.15137H6.56982Z" fill="#CCCCFF"/>
<path d="M6.67494 4.15137L6.78744 4.26387L6.67494 4.15137ZM3.68994 4.26387L3.80244 4.37637L3.68994 4.26387Z" fill="#99CCCC"/>
<path d="M3.79883 4.26367L3.91133 4.37617L3.79883 4.26367Z" fill="#CCCCFF"/>
<path d="M4.24121 4.26367L4.35371 4.37617L4.24121 4.26367Z" fill="#FFCCCC"/>
<path d="M4.3501 4.26367L4.4626 4.37617L4.3501 4.26367ZM6.3451 4.26367L6.4576 4.37617L6.3451 4.26367Z" fill="#CC3333"/>
<path d="M6.45752 4.26367L6.57002 4.37617L6.45752 4.26367Z" fill="#FFCCCC"/>
<path d="M6.8999 4.26367L7.0124 4.37617L6.8999 4.26367Z" fill="#CCCCFF"/>
<path d="M7.01254 4.26367L7.12129 4.37617L7.00879 4.26367H7.01254Z" fill="#99CCCC"/>
<path d="M3.24756 4.37256L3.36006 4.48506L3.24756 4.37256Z" fill="#6699CC"/>
<path d="M3.35645 4.37256L3.46895 4.48506L3.35645 4.37256Z" fill="#99CCCC"/>
<path d="M3.46875 4.37256L3.58125 4.48506L3.46875 4.37256Z" fill="#CCFFFF"/>
<path d="M3.91113 4.37256L4.02363 4.48506L3.91113 4.37256Z" fill="#FFCCCC"/>
<path d="M4.09521 4.41016L4.17021 4.44766L4.09521 4.41016ZM6.64147 4.41016L6.71647 4.44766L6.64147 4.41016Z" fill="#CC3333"/>
<path d="M6.7876 4.37256L6.9001 4.48506L6.7876 4.37256Z" fill="#FFCCCC"/>
<path d="M7.22998 4.37256L7.34248 4.48506L7.22998 4.37256Z" fill="#CCFFFF"/>
<path d="M7.34229 4.37256L7.45479 4.48506L7.34229 4.37256Z" fill="#99CCCC"/>
<path d="M7.45107 4.37256L7.56357 4.48506L7.45107 4.37256ZM2.91357 4.48506L3.02607 4.59756L2.91357 4.48506Z" fill="#6699CC"/>
<path d="M3.02637 4.48486L3.13887 4.59736L3.02637 4.48486Z" fill="#99CCCC"/>
<path d="M3.13477 4.48486L3.24727 4.59736L3.13477 4.48486Z" fill="#CCFFFF"/>
<path d="M3.57764 4.48486L3.69014 4.59736L3.57764 4.48486Z" fill="#FFCCCC"/>
<path d="M3.76123 4.52246L3.83623 4.55996L3.76123 4.52246ZM6.97123 4.52246L7.04623 4.55996L6.97123 4.52246Z" fill="#CC3333"/>
<path d="M7.12109 4.48486L7.23359 4.59736L7.12109 4.48486Z" fill="#FFCCCC"/>
<path d="M7.56396 4.48486L7.67646 4.59736L7.56396 4.48486Z" fill="#CCFFFF"/>
<path d="M7.67236 4.48486L7.78486 4.59736L7.67236 4.48486Z" fill="#99CCCC"/>
<path d="M7.78508 4.48486L7.89758 4.59736L7.78508 4.48486ZM2.58008 4.59736L2.69258 4.70611L2.58008 4.59361V4.59736Z" fill="#6699CC"/>
<path d="M2.69238 4.59375L2.80488 4.70625L2.69238 4.59375Z" fill="#99CCFF"/>
<path d="M3.24756 4.59375L3.36006 4.70625L3.24756 4.59375Z" fill="#FFCCCC"/>
<path d="M3.43115 4.63135L3.50615 4.66885L3.43115 4.63135ZM7.3049 4.63135L7.3799 4.66885L7.3049 4.63135Z" fill="#CC3333"/>
<path d="M7.45117 4.59375L7.56367 4.70625L7.45117 4.59375Z" fill="#FFCCCC"/>
<path d="M8.00635 4.59375L8.11885 4.70625L8.00635 4.59375Z" fill="#99CCFF"/>
<path d="M8.11523 4.59375L8.22773 4.70625L8.11523 4.59375Z" fill="#6699CC"/>
<path d="M2.25 4.70605L2.3625 4.81855L2.25 4.70605Z" fill="#66CCCC"/>
<path d="M2.36264 4.70605L2.47139 4.81855L2.35889 4.70605H2.36264Z" fill="#99CCFF"/>
<path d="M2.80502 4.70605L2.91377 4.81855L2.80127 4.70605H2.80502ZM7.89752 4.70605L8.00627 4.81855L7.89377 4.70605H7.89752Z" fill="#FFCCCC"/>
<path d="M8.33643 4.70605L8.44893 4.81855L8.33643 4.70605Z" fill="#99CCFF"/>
<path d="M8.44852 4.70605L8.56102 4.81855L8.44852 4.70605ZM1.91602 4.81855L2.02852 4.9273L1.91602 4.8148V4.81855Z" fill="#66CCCC"/>
<path d="M2.0249 4.81494L2.1374 4.92744L2.0249 4.81494Z" fill="#CCCCFF"/>
<path d="M2.47119 4.81494L2.58369 4.92744L2.47119 4.81494Z" fill="#FFCCCC"/>
<path d="M2.65479 4.85254L2.72979 4.89004L2.65479 4.85254ZM8.08103 4.85254L8.15603 4.89004L8.08103 4.85254Z" fill="#CC3333"/>
<path d="M8.22754 4.81494L8.34004 4.92744L8.22754 4.81494Z" fill="#FFCCCC"/>
<path d="M8.66992 4.81494L8.78242 4.92744L8.66992 4.81494Z" fill="#CCCCFF"/>
<path d="M8.78271 4.81494L8.89521 4.92744L8.78271 4.81494Z" fill="#66CCCC"/>
<path d="M1.58643 4.92773L1.69893 5.04023L1.58643 4.92773Z" fill="#99CCCC"/>
<path d="M1.69482 4.92773L1.80732 5.04023L1.69482 4.92773Z" fill="#CCCCFF"/>
<path d="M2.1377 4.92773L2.2502 5.04023L2.1377 4.92773ZM8.56145 4.92773L8.67395 5.04023L8.56145 4.92773Z" fill="#FFCCCC"/>
<path d="M9 4.92773L9.1125 5.04023L9 4.92773Z" fill="#CCCCFF"/>
<path d="M9.11273 4.92773L9.22523 5.04023L9.11273 4.92773ZM1.36523 5.04023L1.47773 5.14898L1.36523 5.03648V5.04023Z" fill="#99CCCC"/>
<path d="M1.91602 5.03613L2.02852 5.14863L1.91602 5.03613ZM8.77852 5.03613L8.89102 5.14863L8.77852 5.03613Z" fill="#CC6666"/>
<path d="M9.33768 5.03613L9.44643 5.14863L9.33393 5.03613M1.58643 5.14863L1.69893 5.26113L1.58643 5.14863Z" fill="#99CCCC"/>
<path d="M1.69482 5.14893L1.80732 5.26143L1.69482 5.14893Z" fill="#CCCCFF"/>
<path d="M2.1377 5.14893L2.2502 5.26143L2.1377 5.14893ZM8.56145 5.14893L8.67395 5.26143L8.56145 5.14893Z" fill="#FFCCCC"/>
<path d="M9 5.14893L9.1125 5.26143L9 5.14893Z" fill="#CCCCFF"/>
<path d="M9.1123 5.14893L9.2248 5.26143L9.1123 5.14893Z" fill="#99CCCC"/>
<path d="M1.91602 5.26107L2.02852 5.36982L1.91602 5.25732V5.26107Z" fill="#66CCCC"/>
<path d="M2.0249 5.26107L2.1374 5.36982L2.0249 5.25732V5.26107Z" fill="#CCCCFF"/>
<path d="M2.47119 5.26107L2.58369 5.36982L2.47119 5.25732V5.26107Z" fill="#FFCCCC"/>
<path d="M2.65479 5.29492L2.72979 5.33242L2.65479 5.29492ZM8.08103 5.29492L8.15603 5.33242L8.08103 5.29492Z" fill="#CC3333"/>
<path d="M8.22754 5.26107L8.34004 5.36982L8.22754 5.25732V5.26107Z" fill="#FFCCCC"/>
<path d="M8.66992 5.26107L8.78242 5.36982L8.66992 5.25732V5.26107Z" fill="#CCCCFF"/>
<path d="M8.7825 5.26107L8.895 5.36982L8.7825 5.25732M2.25 5.36982L2.3625 5.48232L2.25 5.36982Z" fill="#66CCCC"/>
<path d="M2.36264 5.37012L2.47139 5.48262L2.35889 5.37012H2.36264Z" fill="#99CCFF"/>
<path d="M2.80502 5.37012L2.91377 5.48262L2.80127 5.37012H2.80502ZM7.89752 5.37012L8.00627 5.48262L7.89377 5.37012H7.89752Z" fill="#FFCCCC"/>
<path d="M8.33643 5.37012L8.44893 5.48262L8.33643 5.37012Z" fill="#99CCFF"/>
<path d="M8.44873 5.37012L8.56123 5.48262L8.44873 5.37012Z" fill="#66CCCC"/>
<path d="M2.58008 5.48227L2.69258 5.59102L2.58008 5.47852V5.48227Z" fill="#6699CC"/>
<path d="M2.69238 5.48227L2.80488 5.59102L2.69238 5.47852V5.48227Z" fill="#99CCFF"/>
<path d="M3.24756 5.48227L3.36006 5.59102L3.24756 5.47852V5.48227Z" fill="#FFCCCC"/>
<path d="M3.43115 5.51611L3.50615 5.55361L3.43115 5.51611ZM7.3049 5.51611L7.3799 5.55361L7.3049 5.51611Z" fill="#CC3333"/>
<path d="M7.45117 5.48227L7.56367 5.59102L7.45117 5.47852V5.48227Z" fill="#FFCCCC"/>
<path d="M8.00635 5.48227L8.11885 5.59102L8.00635 5.47852V5.48227Z" fill="#99CCFF"/>
<path d="M8.11482 5.48227L8.22732 5.59102L8.11482 5.47852M2.91357 5.59102L3.02607 5.70352L2.91357 5.59102Z" fill="#6699CC"/>
<path d="M3.02637 5.59131L3.13887 5.70381L3.02637 5.59131Z" fill="#99CCCC"/>
<path d="M3.13477 5.59131L3.24727 5.70381L3.13477 5.59131Z" fill="#CCFFFF"/>
<path d="M3.57764 5.59131L3.69014 5.70381L3.57764 5.59131Z" fill="#FFCCCC"/>
<path d="M3.76123 5.625L3.83623 5.6625L3.76123 5.625ZM6.97123 5.625L7.04623 5.6625L6.97123 5.625Z" fill="#CC3333"/>
<path d="M7.12109 5.59131L7.23359 5.70381L7.12109 5.59131Z" fill="#FFCCCC"/>
<path d="M7.56396 5.59131L7.67646 5.70381L7.56396 5.59131Z" fill="#CCFFFF"/>
<path d="M7.67236 5.59131L7.78486 5.70381L7.67236 5.59131Z" fill="#99CCCC"/>
<path d="M7.7849 5.59131L7.8974 5.70381L7.7849 5.59131ZM3.2474 5.70381L3.35615 5.81256L3.24365 5.70006L3.2474 5.70381Z" fill="#6699CC"/>
<path d="M3.35645 5.7002L3.46895 5.8127L3.35645 5.7002Z" fill="#99CCCC"/>
<path d="M3.46875 5.7002L3.58125 5.8127L3.46875 5.7002Z" fill="#CCFFFF"/>
<path d="M3.91113 5.7002L4.02363 5.8127L3.91113 5.7002Z" fill="#FFCCCC"/>
<path d="M4.09521 5.7373L4.17021 5.7748L4.09521 5.7373ZM6.64147 5.7373L6.71647 5.7748L6.64147 5.7373Z" fill="#CC3333"/>
<path d="M6.7876 5.7002L6.9001 5.8127L6.7876 5.7002Z" fill="#FFCCCC"/>
<path d="M7.22998 5.7002L7.34248 5.8127L7.22998 5.7002Z" fill="#CCFFFF"/>
<path d="M7.34229 5.7002L7.45479 5.8127L7.34229 5.7002Z" fill="#99CCCC"/>
<path d="M7.45117 5.7002L7.56367 5.8127L7.45117 5.7002Z" fill="#6699CC"/>
<path d="M3.68994 5.8125L3.80244 5.925L3.68994 5.8125Z" fill="#99CCCC"/>
<path d="M3.79883 5.8125L3.91133 5.925L3.79883 5.8125Z" fill="#CCCCFF"/>
<path d="M4.24121 5.8125L4.35371 5.925L4.24121 5.8125Z" fill="#FFCCCC"/>
<path d="M4.3501 5.8125L4.4626 5.925L4.3501 5.8125ZM6.3451 5.8125L6.4576 5.925L6.3451 5.8125Z" fill="#CC3333"/>
<path d="M6.45752 5.8125L6.57002 5.925L6.45752 5.8125Z" fill="#FFCCCC"/>
<path d="M6.8999 5.8125L7.0124 5.925L6.8999 5.8125Z" fill="#CCCCFF"/>
<path d="M7.01252 5.8125L7.12127 5.925L7.00877 5.8125M4.02002 5.925L4.13252 6.0375L4.02002 5.925Z" fill="#99CCCC"/>
<path d="M4.13232 5.9248L4.24482 6.0373L4.13232 5.9248ZM6.56982 5.9248L6.67857 6.0373L6.56607 5.9248H6.56982Z" fill="#CCCCFF"/>
<path d="M6.6751 5.9248L6.7876 6.0373L6.6751 5.9248ZM4.3501 6.0373L4.4626 6.14605L4.3501 6.03355V6.0373Z" fill="#99CCCC"/>
<path d="M4.5752 6.03744L4.6877 6.14619L4.5752 6.03369M6.12395 6.03369L6.23645 6.14619L6.12395 6.03369Z" fill="#CC3333"/>
<path d="M6.34521 6.03744L6.45771 6.14619L6.34521 6.03369V6.03744Z" fill="#99CCCC"/>
<path d="M4.5752 6.14648L4.6877 6.25898L4.5752 6.14648ZM6.12395 6.14648L6.23645 6.25898L6.12395 6.14648Z" fill="#FFCCCC"/>
<path d="M4.4624 6.25488L4.5749 6.36738L4.4624 6.25488Z" fill="#CCCCFF"/>
<path d="M4.72494 6.33008L4.75869 6.40508L4.72119 6.33008M6.04869 6.33008L6.08619 6.40508L6.04869 6.33008Z" fill="#CC3333"/>
<path d="M6.23633 6.25488L6.34883 6.36738L6.23633 6.25488Z" fill="#CCCCFF"/>
<path d="M4.4624 6.36768L4.5749 6.48018L4.4624 6.36768ZM6.23615 6.36768L6.34865 6.48018L6.23615 6.36768Z" fill="#99CCCC"/>
<path d="M4.68734 6.47607L4.79609 6.58857L4.68359 6.47607M6.01484 6.47607L6.12734 6.58857L6.01484 6.47607Z" fill="#FFCCCC"/>
<path d="M4.5752 6.58887L4.6877 6.70137L4.5752 6.58887Z" fill="#CCCCFF"/>
<path d="M4.83398 6.66016L4.87148 6.73516L4.83398 6.66016ZM5.94023 6.66016L5.97773 6.73516L5.94023 6.66016Z" fill="#CC3333"/>
<path d="M6.12354 6.58887L6.23604 6.70137L6.12354 6.58887Z" fill="#CCCCFF"/>
<path d="M4.5752 6.69727L4.6877 6.80977L4.5752 6.69727ZM6.12395 6.69727L6.23645 6.80977L6.12395 6.69727Z" fill="#99CCCC"/>
<path d="M4.79639 6.81006L4.90889 6.92256L4.79639 6.81006ZM5.90264 6.81006L6.01514 6.92256L5.90264 6.81006Z" fill="#FFCCCC"/>
<path d="M4.68734 6.91895L4.79609 7.03145L4.68359 6.91895H4.68734Z" fill="#CCFFFF"/>
<path d="M4.94238 6.99365L4.97988 7.06865L4.94238 6.99365ZM5.82738 6.99365L5.86488 7.06865L5.82738 6.99365Z" fill="#CC3333"/>
<path d="M6.01514 6.91895L6.12764 7.03145L6.01514 6.91895Z" fill="#CCFFFF"/>
<path d="M4.68734 7.03125L4.79609 7.14375L4.68359 7.03125M6.01484 7.03125L6.12734 7.14375L6.01484 7.03125Z" fill="#99CCCC"/>
<path d="M4.68734 7.14014L4.79609 7.25264L4.68359 7.14014H4.68734Z" fill="#6699CC"/>
<path d="M4.90479 7.14014L5.01729 7.25264L4.90479 7.14014ZM5.79354 7.14014L5.90604 7.25264L5.79354 7.14014Z" fill="#FFCCCC"/>
<path d="M6.01514 7.14014L6.12764 7.25264L6.01514 7.14014Z" fill="#6699CC"/>
<path d="M4.79639 7.25244L4.90889 7.36494L4.79639 7.25244ZM5.90264 7.25244L6.01514 7.36494L5.90264 7.25244Z" fill="#CCFFFF"/>
<path d="M4.79639 7.36133L4.90889 7.47383L4.79639 7.36133ZM5.90264 7.36133L6.01514 7.47383L5.90264 7.36133Z" fill="#99CCCC"/>
<path d="M4.79639 7.47363L4.90889 7.58613L4.79639 7.47363ZM5.90264 7.47363L6.01514 7.58613L5.90264 7.47363Z" fill="#6699CC"/>
<path d="M5.01758 7.58252L5.13008 7.69502L5.01758 7.58252ZM5.68133 7.58252L5.79383 7.69502L5.68133 7.58252Z" fill="#FFCCCC"/>
<path d="M4.90479 7.69482L5.01729 7.80732L4.90479 7.69482Z" fill="#99CCFF"/>
<path d="M5.16357 7.77002L5.20107 7.84502L5.16357 7.77002ZM5.60607 7.77002L5.64357 7.84502L5.60607 7.77002Z" fill="#CC3333"/>
<path d="M5.79395 7.69482L5.90645 7.80732L5.79395 7.69482Z" fill="#99CCFF"/>
<path d="M4.90479 7.80746L5.01729 7.91621L4.90479 7.80371M5.79354 7.80371L5.90604 7.91621L5.79354 7.80371Z" fill="#6699CC"/>
<path d="M5.12646 7.91602L5.23896 8.02852L5.12646 7.91602ZM5.57272 7.91602L5.68146 8.02852L5.56896 7.91602H5.57272Z" fill="#FFCCCC"/>
<path d="M5.01758 8.0249L5.13008 8.1374L5.01758 8.0249ZM5.68133 8.0249L5.79383 8.1374L5.68133 8.0249Z" fill="#99CCFF"/>
<path d="M5.01758 8.1377L5.13008 8.2502L5.01758 8.1377ZM5.68133 8.1377L5.79383 8.2502L5.68133 8.1377Z" fill="#66CCCC"/>
<path d="M5.23877 8.25L5.35127 8.3625L5.23877 8.25ZM5.46002 8.25L5.57252 8.3625L5.46002 8.25Z" fill="#FFCCCC"/>
<path d="M5.12646 8.35889L5.23896 8.47139L5.12646 8.35889ZM5.57272 8.35889L5.68146 8.47139L5.56896 8.35889H5.57272Z" fill="#CCCCFF"/>
<path d="M5.12646 8.47119L5.23896 8.58369L5.12646 8.47119Z" fill="#66CCCC"/>
<path d="M5.35141 8.47119L5.46016 8.58369L5.34766 8.47119H5.35141Z" fill="#CC6666"/>
<path d="M5.5726 8.47119L5.68135 8.58369L5.56885 8.47119H5.5726Z" fill="#66CCCC"/>
<path d="M5.23877 8.69238L5.35127 8.80488L5.23877 8.69238ZM5.46002 8.69238L5.57252 8.80488L5.46002 8.69238Z" fill="#CCCCFF"/>
<path d="M5.23877 8.80127L5.35127 8.91377L5.23877 8.80127ZM5.46002 8.80127L5.57252 8.91377L5.46002 8.80127ZM5.34752 9.02627L5.46002 9.13502L5.34752 9.02252V9.02627Z" fill="#99CCCC"/>
</g>
<defs>
<clipPath id="clip0_7624_51485">
<rect width="24" height="18" fill="white"/>
</clipPath>
</defs>
</svg>
