<svg width="24" height="18" viewBox="0 0 24 18" fill="none" xmlns="http://www.w3.org/2000/svg">
<g clip-path="url(#clip0_7624_52417)">
<path d="M0 0H24V18H0V0Z" fill="#000066"/>
<path fill-rule="evenodd" clip-rule="evenodd" d="M11.2427 14.7189L9.60397 14.8614L9.82896 16.4889L8.70021 15.3001L7.57146 16.4889L7.79646 14.8614L6.15771 14.7189L7.57146 13.8826L6.66022 12.5139L8.19772 13.0951L8.70021 11.5314L9.20646 13.0951L10.744 12.5139L9.83272 13.8826M18.2477 16.2189L17.8502 15.6264L18.5177 15.8776L18.7352 15.1989L18.9527 15.8776L19.6202 15.6264L19.2265 16.2189L19.8415 16.5826L19.129 16.6464L19.2265 17.3551L18.739 16.8339L18.244 17.3551L18.3415 16.6464L17.629 16.5864M18.244 5.64012L17.8502 5.04762L18.5177 5.29887L18.7352 4.62012L18.9527 5.29887L19.6202 5.04762L19.2265 5.64012L19.8415 6.00762L19.129 6.06762L19.2265 6.77637L18.739 6.25887L18.244 6.77262L18.3415 6.06762L17.629 6.00762M14.2802 9.93762L13.8865 9.34512L14.554 9.59637L14.7715 8.91762L14.9927 9.59637L15.6602 9.34512L15.2627 9.93762L15.8777 10.3014L15.1652 10.3651L15.2665 11.0739L14.7715 10.5526L14.284 11.0739L14.3777 10.3651L13.6652 10.3051M21.7765 8.88012L21.3752 8.28762L22.0427 8.53887L22.2602 7.86012L22.4815 8.53887L23.149 8.28762L22.7552 8.88012L23.3665 9.24387L22.654 9.30762L22.7515 10.0126L22.264 9.49512L21.769 10.0126L21.8665 9.30762L21.154 9.24387M20.3252 12.0001L19.939 12.2439L20.0477 11.7976L19.699 11.5051L20.1527 11.4676L20.3252 11.0476L20.5015 11.4714L20.9552 11.5051L20.6065 11.7976L20.7152 12.2439" fill="white"/>
<path d="M0 0H12V9H0V0Z" fill="#000066"/>
<path d="M1.40625 0L5.98125 3.39375L10.5375 0H12V1.1625L7.5 4.51875L12 7.85625V9H10.5L6 5.64375L1.51875 9H0V7.875L4.48125 4.5375L0 1.2V0H1.40625Z" fill="white"/>
<path d="M7.95 5.26875L12 8.25V9L6.91875 5.26875H7.95ZM4.5 5.64375L4.6125 6.3L1.0125 9H0L4.5 5.64375ZM12 0V0.05625L7.33125 3.58125L7.36875 2.75625L11.0625 0H12ZM0 0L4.48125 3.3H3.35625L0 0.7875V0Z" fill="#C8102E"/>
<path d="M4.51875 0V9H7.51875V0H4.51875ZM0 3V6H12V3H0Z" fill="white"/>
<path d="M0 3.61875V5.41875H12V3.61875H0ZM5.11875 0V9H6.91875V0H5.11875Z" fill="#C8102E"/>
</g>
<defs>
<clipPath id="clip0_7624_52417">
<rect width="24" height="18" fill="white"/>
</clipPath>
</defs>
</svg>
