<svg width="24" height="18" viewBox="0 0 24 18" fill="none" xmlns="http://www.w3.org/2000/svg">
<g clip-path="url(#clip0_7624_52382)">
<path fill-rule="evenodd" clip-rule="evenodd" d="M0 0H24V18H0V0Z" fill="#229E45"/>
<path fill-rule="evenodd" clip-rule="evenodd" d="M12.0524 16.3499L23.3586 9.01115L11.9849 1.6499L0.641113 9.02615L12.0524 16.3499Z" fill="#F8E509"/>
<path fill-rule="evenodd" clip-rule="evenodd" d="M16.9798 9C16.9798 11.6362 14.8386 13.7737 12.1948 13.7737C11.2501 13.7723 10.327 13.4907 9.54223 12.9647C8.75748 12.4387 8.1463 11.6918 7.78597 10.8185C7.42563 9.94514 7.33231 8.98459 7.5178 8.05823C7.70329 7.13188 8.15926 6.28132 8.82808 5.61408C9.4969 4.94683 10.3485 4.49286 11.2753 4.30955C12.2021 4.12624 13.1624 4.22182 14.0349 4.58421C14.9074 4.9466 15.6528 5.55953 16.177 6.34552C16.7012 7.13151 16.9805 8.05526 16.9798 9Z" fill="#2B49A3"/>
<path fill-rule="evenodd" clip-rule="evenodd" d="M10.6236 11.8611L10.4736 11.7748L10.3236 11.8498L10.3573 11.6811L10.2373 11.5536L10.4061 11.5348L10.4886 11.3848L10.5598 11.5423L10.7248 11.5723L10.6011 11.6848M13.8261 12.6711L13.6798 12.5848L13.5298 12.6598L13.5598 12.4911L13.4436 12.3673L13.6123 12.3486L13.6911 12.1948L13.7661 12.3523L13.9311 12.3823L13.8036 12.4986M12.4461 11.3736L12.3186 11.2986L12.1873 11.3661L12.2173 11.2198L12.1123 11.1111L12.2623 11.0961L12.3298 10.9611L12.3898 11.0998L12.5361 11.1261L12.4236 11.2273M15.6861 10.9086L15.5586 10.8336L15.4273 10.9011L15.4573 10.7548L15.3561 10.6498L15.5023 10.6348L15.5698 10.5036L15.6298 10.6386L15.7723 10.6648L15.6636 10.7623M12.3898 9.93734L12.2398 9.85484L12.0898 9.92984L12.1198 9.75734L12.0036 9.63359L12.1723 9.61484L12.2511 9.46109L12.3261 9.61859L12.4911 9.64859L12.3636 9.76859M8.44109 8.45609L8.29109 8.37359L8.14109 8.44859L8.17859 8.27609L8.05484 8.15234L8.22734 8.13359L8.30234 7.97984L8.37734 8.13734L8.54234 8.16734L8.41859 8.28359M8.91734 10.4286L8.76734 10.3423L8.61734 10.4173L8.65109 10.2486L8.53109 10.1248L8.69984 10.1023L8.77859 9.95234L8.85359 10.1098L9.01859 10.1398L8.89484 10.2561M13.8448 7.73234L13.7098 7.65734L13.5748 7.72484L13.6048 7.57484L13.4998 7.46234L13.6498 7.44359L13.7211 7.30859L13.7848 7.45109L13.9348 7.47734L13.8223 7.57859M13.5711 9.01484L13.4698 8.95484L13.3611 9.00734L13.3836 8.88734L13.3011 8.80109L13.4211 8.78609L13.4773 8.68109L13.5261 8.79359L13.6386 8.81234L13.5561 8.89484M8.22359 10.7848L8.12234 10.7286L8.02109 10.7773L8.04359 10.6648L7.96484 10.5823L8.07734 10.5673L8.12984 10.4661L8.17859 10.5711L8.29109 10.5936L8.20484 10.6686M15.7123 11.2423L15.6298 11.2011L15.5473 11.2386L15.5661 11.1523L15.5023 11.0923L15.5923 11.0811L15.6373 11.0061L15.6748 11.0811L15.7686 11.0998L15.6973 11.1561" fill="#FFFFEF"/>
<path fill-rule="evenodd" clip-rule="evenodd" d="M8.22359 10.7851L8.12234 10.7288L8.02109 10.7776L8.04359 10.6651L7.96484 10.5826L8.07734 10.5676L8.12984 10.4663L8.17859 10.5713L8.29109 10.5938L8.20484 10.6688" fill="#FFFFEF"/>
<path fill-rule="evenodd" clip-rule="evenodd" d="M8.22359 10.7848L8.12234 10.7286L8.02109 10.7773L8.04359 10.6648L7.96484 10.5823L8.07734 10.5673L8.12984 10.4661L8.17859 10.5711L8.29109 10.5936L8.20484 10.6686M9.79109 10.7811L9.69359 10.7286L9.59234 10.7773L9.61484 10.6648L9.53609 10.5823L9.64859 10.5673L9.70109 10.4661L9.74984 10.5711L9.86234 10.5898L9.77609 10.6686M9.59609 11.3061L9.49859 11.2498L9.39734 11.3023L9.41984 11.1898L9.34109 11.1036L9.45359 11.0886L9.50609 10.9873L9.55484 11.0923L9.66734 11.1148L9.58109 11.1898M12.8586 10.3573L12.7611 10.2973L12.6561 10.3498L12.6786 10.2373L12.6036 10.1511L12.7161 10.1398L12.7686 10.0386L12.8136 10.1436L12.9261 10.1623L12.8436 10.2411M11.9023 10.3536L11.8011 10.2973L11.6998 10.3498L11.7223 10.2373L11.6473 10.1511L11.7598 10.1398L11.8123 10.0348L11.8573 10.1436L11.9698 10.1623L11.8873 10.2411M9.30734 10.0236L9.24359 9.98609L9.17984 10.0161L9.19484 9.94484L9.14609 9.89234L9.21734 9.88484L9.24734 9.82109L9.27734 9.88859L9.34859 9.89984L9.29609 9.94859M15.5886 11.6511L15.4911 11.5948L15.3898 11.6473L15.4123 11.5348L15.3336 11.4486L15.4461 11.4336L15.4986 11.3323L15.5473 11.4373L15.6598 11.4598L15.5736 11.5348M14.7936 11.7598L14.7111 11.7073L14.6248 11.7523L14.6436 11.6548L14.5798 11.5873L14.6736 11.5761L14.7186 11.4898L14.7561 11.5798L14.8498 11.5948L14.7786 11.6623M15.1686 11.7486L15.0936 11.7036L15.0148 11.7411L15.0298 11.6548L14.9698 11.5911L15.0561 11.5798L15.0973 11.5048L15.1348 11.5798L15.2211 11.5986L15.1573 11.6586M16.2486 10.8036L16.1736 10.7661L16.0986 10.8036L16.1173 10.7173L16.0573 10.6536L16.1436 10.6423L16.1811 10.5673L16.2186 10.6461L16.2973 10.6611L16.2373 10.7211M14.7823 12.2886L14.6886 12.2361L14.5873 12.2811L14.6098 12.1761L14.5348 12.1011L14.6473 12.0898L14.6961 11.9961L14.7411 12.0936L14.8536 12.1123L14.7673 12.1836M14.7898 12.7161L14.6998 12.6636L14.6098 12.7123L14.6323 12.6073L14.5611 12.5323L14.6623 12.5173L14.7073 12.4236L14.7486 12.5211L14.8498 12.5398L14.7748 12.6148M14.0623 11.7486L13.9911 11.7036L13.9161 11.7411L13.9311 11.6586L13.8748 11.5948L13.9573 11.5873L13.9948 11.5123L14.0323 11.5873L14.1148 11.6023L14.0548 11.6623M13.3873 11.7486L13.3123 11.7036L13.2373 11.7411L13.2561 11.6586L13.1961 11.5948L13.2823 11.5873L13.3198 11.5123L13.3573 11.5873L13.4361 11.6023L13.3761 11.6623M12.2361 10.7398L12.1611 10.6986L12.0861 10.7361L12.1048 10.6498L12.0448 10.5898L12.1273 10.5786L12.1648 10.5036L12.2023 10.5786L12.2848 10.5973L12.2248 10.6536M12.3636 12.7911L12.3036 12.7573L12.2361 12.7911L12.2511 12.7161L12.2023 12.6636L12.2736 12.6561L12.3073 12.5923L12.3373 12.6598L12.4086 12.6711L12.3561 12.7198M10.6236 9.47234L10.4736 9.38609L10.3236 9.46109L10.3573 9.29234L10.2373 9.16859L10.4061 9.14609L10.4886 8.99609L10.5598 9.15359L10.7248 9.18359L10.6011 9.29984" fill="#FFFFEF"/>
<path fill-rule="evenodd" clip-rule="evenodd" d="M16.6648 10.7174C16.7577 10.4764 16.8305 10.228 16.8823 9.97493C14.3398 7.74368 11.5086 6.59993 7.93105 6.83618C7.8013 7.08725 7.69461 7.34957 7.6123 7.61993C11.8498 7.21493 14.9623 9.08993 16.6648 10.7174Z" fill="white"/>
<path d="M15.5251 9.4651L15.6114 9.51385C15.5985 9.53931 15.5945 9.56836 15.6001 9.59635C15.6089 9.62348 15.6277 9.64627 15.6526 9.6601C15.6789 9.67885 15.7051 9.6901 15.7276 9.68635C15.7501 9.68635 15.7651 9.6751 15.7764 9.6601C15.7829 9.65014 15.7856 9.63814 15.7839 9.62635C15.7808 9.6125 15.7744 9.59961 15.7651 9.58885C15.7576 9.5776 15.7389 9.55135 15.7089 9.52135C15.678 9.48952 15.6549 9.45103 15.6414 9.40885C15.632 9.37692 15.6344 9.3427 15.6482 9.31241C15.662 9.28212 15.6862 9.25779 15.7164 9.24385C15.7436 9.23246 15.7738 9.22984 15.8026 9.23635C15.8379 9.24447 15.8711 9.25979 15.9001 9.28135C15.9526 9.31885 15.9864 9.35635 15.9976 9.40135C16.0028 9.42239 16.0035 9.4443 15.9996 9.46563C15.9957 9.48696 15.9874 9.50722 15.9751 9.5251L15.8851 9.46885C15.8964 9.44635 15.9001 9.42385 15.8926 9.4051C15.8889 9.38635 15.8739 9.3676 15.8476 9.3526C15.8284 9.3371 15.8048 9.32794 15.7801 9.32635C15.7733 9.32612 15.7666 9.32774 15.7606 9.33105C15.7547 9.33435 15.7498 9.33921 15.7464 9.3451C15.7389 9.35635 15.7389 9.3676 15.7426 9.3826C15.7464 9.3976 15.7651 9.4276 15.8026 9.4651C15.8401 9.5026 15.8626 9.53635 15.8776 9.55885C15.891 9.58342 15.8971 9.61133 15.8951 9.63925C15.8931 9.66716 15.8831 9.69392 15.8664 9.71635C15.8488 9.74184 15.824 9.76145 15.7951 9.7726C15.767 9.78555 15.7356 9.78947 15.7051 9.78385C15.6714 9.77635 15.6376 9.76135 15.6001 9.7351C15.5439 9.6976 15.5101 9.65635 15.4989 9.61135C15.4866 9.56032 15.4947 9.50654 15.5214 9.46135L15.5251 9.4651ZM15.0901 9.1801L15.1839 9.22885C15.1723 9.25475 15.1696 9.28378 15.1764 9.31135C15.186 9.33709 15.2046 9.35843 15.2289 9.37135C15.2589 9.3901 15.2814 9.3976 15.3039 9.39385C15.3264 9.39385 15.3414 9.3826 15.3526 9.36385C15.3583 9.35493 15.3609 9.3444 15.3601 9.33385C15.3601 9.3226 15.3526 9.3076 15.3414 9.29635C15.3222 9.27316 15.3021 9.25064 15.2814 9.22885C15.2401 9.1876 15.2139 9.15385 15.2064 9.12385C15.2002 9.10455 15.1984 9.08414 15.201 9.06406C15.2036 9.04398 15.2105 9.02471 15.2214 9.0076C15.2356 8.98446 15.2565 8.96616 15.2814 8.9551C15.3071 8.94322 15.3359 8.9393 15.3639 8.94385C15.3986 8.94969 15.4317 8.96244 15.4614 8.98135C15.5176 9.01885 15.5514 9.05635 15.5626 9.0976C15.5695 9.11868 15.5716 9.14098 15.5691 9.16299C15.5665 9.18499 15.5592 9.20618 15.5476 9.2251L15.4539 9.1726C15.4651 9.14635 15.4689 9.1276 15.4614 9.10885C15.4539 9.0901 15.4389 9.07135 15.4126 9.05635C15.3919 9.04146 15.3669 9.03357 15.3414 9.03385C15.3352 9.03426 15.3292 9.03619 15.324 9.03946C15.3188 9.04273 15.3144 9.04724 15.3114 9.0526C15.3039 9.06385 15.3039 9.0751 15.3076 9.0901C15.3114 9.1051 15.3339 9.1351 15.3714 9.1726C15.4089 9.2101 15.4351 9.2401 15.4464 9.2626C15.4614 9.28611 15.4694 9.31344 15.4694 9.34135C15.4694 9.36926 15.4614 9.39658 15.4464 9.4201C15.4302 9.44626 15.4067 9.46712 15.3789 9.4801C15.3507 9.49305 15.3193 9.49697 15.2889 9.49135C15.2503 9.48482 15.2133 9.47081 15.1801 9.4501C15.1316 9.42426 15.0943 9.38157 15.0751 9.3301C15.0606 9.28003 15.066 9.2263 15.0901 9.1801ZM14.5576 9.0376L14.8314 8.5876L15.1614 8.79385L15.1164 8.86885L14.8764 8.71885L14.8164 8.8201L15.0414 8.95885L14.9926 9.03385L14.7676 8.8951L14.6926 9.01885L14.9439 9.16885L14.8989 9.24385L14.5614 9.0376H14.5576ZM13.7814 8.4001L13.8226 8.3251L14.0251 8.42635L13.9314 8.61385C13.9014 8.62135 13.8639 8.6251 13.8189 8.62135C13.7757 8.61658 13.7337 8.60387 13.6951 8.58385C13.6497 8.56174 13.611 8.52812 13.5826 8.48635C13.5568 8.44754 13.5437 8.40168 13.5451 8.3551C13.547 8.30662 13.5598 8.25919 13.5826 8.21635C13.6051 8.17125 13.6387 8.13256 13.6801 8.10385C13.7198 8.07644 13.7669 8.06202 13.8151 8.0626C13.8526 8.0626 13.8901 8.07385 13.9351 8.1001C13.9951 8.12635 14.0326 8.16385 14.0514 8.2051C14.0709 8.24605 14.0749 8.29268 14.0626 8.33635L13.9614 8.30635C13.9676 8.28123 13.9649 8.25474 13.9539 8.23135C13.9426 8.20885 13.9239 8.19385 13.8939 8.17885C13.8764 8.16887 13.857 8.1627 13.8369 8.16077C13.8169 8.15883 13.7967 8.16116 13.7776 8.1676C13.7401 8.17885 13.7064 8.2126 13.6801 8.2651C13.6539 8.3176 13.6426 8.36635 13.6539 8.4076C13.659 8.42716 13.6684 8.44535 13.6814 8.4609C13.6944 8.47645 13.7106 8.48897 13.7289 8.4976C13.7476 8.50885 13.7701 8.51635 13.7926 8.51635C13.815 8.51974 13.8377 8.51974 13.8601 8.51635L13.8901 8.45635L13.7814 8.4001ZM10.3989 7.56385L10.4739 7.03885L10.6314 7.0651L10.6726 7.4326L10.8189 7.0951L10.9764 7.1176L10.9014 7.6351L10.8001 7.6201L10.8639 7.21135L10.6989 7.6051L10.5976 7.5901L10.5564 7.16635L10.4964 7.57885L10.3989 7.56385ZM9.87012 7.5001L9.91887 6.9751L10.3051 7.0126L10.2976 7.1026L10.0164 7.07635L10.0051 7.18885L10.2676 7.2151L10.2564 7.3051L9.99387 7.27885L9.98262 7.42135L10.2751 7.4476L10.2676 7.5376L9.87012 7.5001Z" fill="#309E3A"/>
<path d="M8.11857 7.17381C8.11857 7.11756 8.12982 7.07631 8.14482 7.03881C8.15796 7.01214 8.17574 6.98801 8.19732 6.96756C8.21655 6.94816 8.23951 6.93285 8.26482 6.92256C8.30232 6.91131 8.33982 6.90381 8.37732 6.90381C8.45607 6.90381 8.51607 6.93381 8.56482 6.97881C8.58802 7.00747 8.60528 7.04048 8.61558 7.07589C8.62589 7.11131 8.62902 7.14842 8.62482 7.18506C8.62482 7.26756 8.59857 7.33506 8.54982 7.38381C8.52477 7.40696 8.49513 7.4246 8.46283 7.43558C8.43054 7.44657 8.39629 7.45064 8.36232 7.44756C8.3288 7.4479 8.29556 7.44143 8.26462 7.42853C8.23368 7.41564 8.20568 7.3966 8.18232 7.37256C8.13565 7.31733 8.11274 7.24588 8.11857 7.17381Z" fill="#309E3A"/>
<path d="M8.22754 7.17372C8.22754 7.22997 8.23879 7.27497 8.26504 7.30872C8.29129 7.33872 8.32504 7.35747 8.37004 7.35747C8.38951 7.35883 8.40903 7.35584 8.4272 7.3487C8.44536 7.34157 8.46171 7.33047 8.47504 7.31622C8.50129 7.28622 8.51254 7.24122 8.51629 7.17747C8.51629 7.11747 8.50879 7.07247 8.47879 7.04247C8.46657 7.02736 8.45116 7.01514 8.43365 7.00671C8.41614 6.99828 8.39697 6.99384 8.37754 6.99372C8.35781 6.99309 8.33819 6.99679 8.32005 7.00457C8.3019 7.01234 8.28569 7.024 8.27254 7.03872C8.24254 7.06872 8.23129 7.11372 8.22754 7.17372Z" fill="#F7FFFF"/>
<path d="M8.7373 7.44395L8.7448 6.91895H8.9698C9.02605 6.91895 9.06355 6.92645 9.0898 6.9377C9.11605 6.9452 9.1348 6.96395 9.1498 6.98645C9.1648 7.00895 9.1723 7.03895 9.1723 7.0727C9.1726 7.10877 9.1592 7.14361 9.1348 7.1702C9.10708 7.19616 9.07141 7.21202 9.03355 7.2152L9.0898 7.2602C9.1048 7.2752 9.12355 7.3052 9.14605 7.34645L9.2098 7.45145H9.0823L9.0073 7.33145L8.9548 7.25645C8.94571 7.24613 8.93408 7.23837 8.92105 7.23395C8.904 7.22897 8.88632 7.22645 8.86855 7.22645H8.84605V7.44395H8.7373Z" fill="#309E3A"/>
<path d="M8.84961 7.14379H8.92461C8.97711 7.14379 9.01086 7.14379 9.02211 7.13629C9.03336 7.13629 9.04461 7.12504 9.05211 7.11754C9.05961 7.11004 9.06336 7.09129 9.06336 7.08004C9.06336 7.05754 9.05961 7.04254 9.04836 7.03504C9.04086 7.02379 9.02586 7.01629 9.01086 7.01254H8.93586L8.84961 7.00879V7.14004V7.14379Z" fill="white"/>
<path d="M9.33729 6.94482L9.53228 6.95607C9.57353 6.95607 9.60728 6.95982 9.62978 6.96732C9.65897 6.97791 9.68485 6.99602 9.70478 7.01982C9.72639 7.04604 9.74177 7.07681 9.74979 7.10982C9.76104 7.14357 9.76478 7.18482 9.76103 7.23357C9.761 7.27185 9.75467 7.30986 9.74228 7.34607C9.72728 7.38357 9.70479 7.41357 9.67854 7.43607C9.65669 7.45408 9.63105 7.4669 9.60354 7.47357C9.58104 7.48107 9.54729 7.48107 9.50979 7.48107L9.31104 7.46982L9.33729 6.94482Z" fill="#309E3A"/>
<path d="M9.43867 7.03857L9.41992 7.38732H9.56242C9.58117 7.38732 9.59617 7.37982 9.60742 7.36857C9.61867 7.35732 9.62992 7.34232 9.63742 7.31982C9.64492 7.29732 9.65242 7.26357 9.65242 7.22232L9.64867 7.12857C9.64332 7.1088 9.63299 7.09073 9.61867 7.07607C9.60622 7.06355 9.5907 7.0545 9.57367 7.04982C9.54531 7.04351 9.51645 7.03975 9.48742 7.03857H9.43867Z" fill="white"/>
<path d="M11.9102 7.88256L12.0339 7.37256L12.1989 7.41006L12.3189 7.44756C12.3452 7.46256 12.3677 7.48506 12.3789 7.51881C12.3939 7.54881 12.3939 7.58256 12.3864 7.62381C12.3789 7.65381 12.3677 7.68006 12.3489 7.69881C12.3352 7.71528 12.3179 7.72851 12.2985 7.73759C12.2791 7.74666 12.2579 7.75134 12.2364 7.75131C12.2102 7.75131 12.1727 7.74381 12.1239 7.73256L12.0602 7.71381L12.0152 7.90881L11.9102 7.88256Z" fill="#309E3A"/>
<path d="M12.1125 7.48486L12.0825 7.62736L12.1388 7.64236C12.1763 7.64986 12.2063 7.65736 12.2213 7.65361C12.2359 7.65159 12.2495 7.64509 12.2602 7.63502C12.2709 7.62495 12.2783 7.61179 12.2813 7.59736C12.2813 7.57861 12.2813 7.56361 12.2738 7.54861C12.2655 7.53337 12.2523 7.52144 12.2363 7.51486L12.165 7.49611L12.1163 7.48486H12.1125Z" fill="white"/>
<path d="M12.3975 8.02869L12.5737 7.53369L12.78 7.60869C12.8362 7.62744 12.87 7.64619 12.8925 7.66119C12.9112 7.67994 12.9262 7.69869 12.93 7.72869C12.9337 7.75869 12.9375 7.78494 12.93 7.81494C12.915 7.85244 12.8925 7.87869 12.8625 7.89744C12.8325 7.91244 12.795 7.91619 12.75 7.90869C12.765 7.92744 12.78 7.94619 12.7875 7.96869L12.8175 8.06994L12.84 8.18619L12.7237 8.14494L12.6862 8.00994C12.6794 7.97941 12.6706 7.94935 12.66 7.91994C12.655 7.90828 12.6473 7.89798 12.6375 7.88994C12.63 7.87869 12.615 7.87119 12.5887 7.86369L12.57 7.85619L12.495 8.06619L12.3975 8.02869Z" fill="#309E3A"/>
<path d="M12.5999 7.77756L12.6712 7.80381C12.7199 7.82256 12.7499 7.83006 12.7649 7.83006C12.7762 7.83006 12.7874 7.83006 12.7987 7.81881C12.8099 7.81131 12.8174 7.80006 12.8212 7.78506C12.8287 7.77006 12.8287 7.75506 12.8212 7.74006C12.8156 7.72552 12.805 7.71352 12.7912 7.70631L12.7162 7.68006L12.6412 7.65381L12.5962 7.77756H12.5999Z" fill="white"/>
<path d="M13.0125 8.01012C13.0254 7.96621 13.0471 7.92538 13.0762 7.89012C13.0952 7.86749 13.1181 7.84844 13.1437 7.83387C13.167 7.82074 13.1924 7.81185 13.2187 7.80762C13.2562 7.80762 13.2937 7.80762 13.335 7.82262C13.3685 7.83091 13.3999 7.84623 13.427 7.86757C13.4542 7.8889 13.4765 7.91576 13.4925 7.94637C13.5225 8.00637 13.5225 8.07762 13.5 8.16012C13.4814 8.23099 13.4356 8.29165 13.3725 8.32887C13.3162 8.36262 13.2487 8.36637 13.1775 8.34387C13.1441 8.33535 13.1128 8.31995 13.0857 8.29864C13.0585 8.27733 13.0362 8.25058 13.02 8.22012C13.005 8.18733 12.9966 8.1519 12.9953 8.11587C12.994 8.07983 12.9998 8.04389 13.0125 8.01012Z" fill="#309E3A"/>
<path d="M13.1177 8.04001C13.1027 8.09626 13.0989 8.14501 13.1177 8.18251C13.1364 8.22001 13.1627 8.24251 13.2039 8.25751C13.2414 8.26876 13.2789 8.26501 13.3164 8.24251C13.3539 8.22376 13.3764 8.18251 13.3952 8.12251C13.4139 8.06626 13.4139 8.02126 13.3952 7.98376C13.3878 7.96597 13.3765 7.95002 13.3623 7.93706C13.348 7.9241 13.3311 7.91444 13.3127 7.90876C13.2942 7.90239 13.2746 7.90009 13.2552 7.90204C13.2358 7.90398 13.217 7.91011 13.2002 7.92001C13.1627 7.94251 13.1364 7.98001 13.1177 8.04001Z" fill="white"/>
<path d="M14.0361 8.74137L14.2761 8.27637L14.4749 8.37762C14.5123 8.39559 14.5466 8.41967 14.5761 8.44887C14.5949 8.46762 14.6061 8.49012 14.6061 8.52012C14.6061 8.55012 14.6061 8.57637 14.5911 8.60262C14.5767 8.63634 14.5499 8.6632 14.5161 8.67762C14.4786 8.68512 14.4411 8.68512 14.3999 8.67012C14.4149 8.69262 14.4224 8.71512 14.4299 8.73387C14.4374 8.75637 14.4411 8.79012 14.4449 8.83887L14.4524 8.95887L14.3399 8.90262L14.3249 8.76387C14.3231 8.73241 14.3193 8.7011 14.3136 8.67012C14.3111 8.65609 14.3046 8.64308 14.2949 8.63262L14.2499 8.60637L14.2311 8.59512L14.1299 8.79012L14.0361 8.74137Z" fill="#309E3A"/>
<path d="M14.2686 8.5199L14.3398 8.5574C14.3848 8.5799 14.4148 8.5949 14.4261 8.5949C14.4373 8.5949 14.4523 8.5949 14.4636 8.5874C14.4748 8.58365 14.4823 8.5724 14.4898 8.5574C14.4973 8.5424 14.5011 8.5274 14.4973 8.5124C14.4927 8.49747 14.4835 8.48436 14.4711 8.4749C14.4491 8.46143 14.4266 8.44892 14.4036 8.4374L14.3286 8.3999L14.2686 8.5199Z" fill="white"/>
<path d="M15.9785 9.70134C16.0028 9.66278 16.0347 9.6296 16.0723 9.60384C16.0975 9.58769 16.1255 9.57625 16.1548 9.57009C16.182 9.56453 16.2101 9.56453 16.2373 9.57009C16.2748 9.57759 16.3085 9.59258 16.3423 9.61508C16.3715 9.63326 16.3966 9.65733 16.4159 9.68574C16.4353 9.71414 16.4485 9.74628 16.4548 9.78008C16.466 9.84383 16.4473 9.91508 16.4023 9.98633C16.3646 10.0483 16.304 10.0928 16.2335 10.1101C16.2 10.1173 16.1652 10.1174 16.1316 10.1103C16.098 10.1032 16.0663 10.0891 16.0385 10.0688C16.0094 10.0507 15.9843 10.0266 15.9649 9.99819C15.9455 9.96978 15.9323 9.93764 15.926 9.90384C15.9148 9.83634 15.9335 9.76884 15.9785 9.70134Z" fill="#309E3A"/>
<path d="M16.0723 9.76151C16.0348 9.81026 16.0235 9.85526 16.031 9.89651C16.0338 9.9155 16.0405 9.93369 16.0509 9.94985C16.0612 9.96602 16.0749 9.97979 16.091 9.99026C16.1285 10.0165 16.166 10.024 16.2035 10.0128C16.241 10.0015 16.2785 9.97526 16.3123 9.92276C16.346 9.87026 16.361 9.82526 16.3535 9.78776C16.3498 9.75026 16.3273 9.71651 16.2935 9.69026C16.2598 9.66401 16.2185 9.66026 16.181 9.67151C16.1435 9.67901 16.106 9.70901 16.0685 9.76151H16.0723Z" fill="white"/>
<path d="M11.3174 7.66877L11.4036 7.30127L11.6736 7.36502L11.6624 7.42502L11.4636 7.38002L11.4449 7.46252L11.6286 7.50377L11.6136 7.56752L11.4299 7.52252L11.4074 7.62377L11.6136 7.67252L11.5986 7.73252L11.3174 7.66877Z" fill="#309E3A"/>
</g>
<defs>
<clipPath id="clip0_7624_52382">
<rect width="24" height="18" fill="white"/>
</clipPath>
</defs>
</svg>
