<svg width="24" height="18" viewBox="0 0 24 18" fill="none" xmlns="http://www.w3.org/2000/svg">
<g clip-path="url(#clip0_7624_51475)">
<path d="M5.62875 0H18.3675V18H5.625L5.62875 0Z" fill="white"/>
<path d="M-0.73877 0H5.62873V18H-0.73877V0ZM18.3675 0H24.735V18H18.3712L18.3675 0ZM7.53748 8.7L7.03873 8.865L9.34123 10.89C9.51748 11.4038 9.28123 11.5575 9.13123 11.8275L11.6287 11.5125L11.5687 14.025L12.09 14.0138L11.9737 11.5163L14.475 11.8163C14.3212 11.49 14.1825 11.3175 14.325 10.7963L16.6237 8.88375L16.2225 8.73375C15.8925 8.47875 16.365 7.51125 16.4325 6.9C16.4325 6.9 15.0937 7.36125 15.0075 7.1175L14.6625 6.46125L13.44 7.80375C13.3087 7.8375 13.2525 7.785 13.2187 7.6725L13.7812 4.8675L12.8887 5.37C12.8137 5.40375 12.7387 5.37375 12.6937 5.2875L11.8312 3.5625L10.9462 5.355C10.8787 5.41875 10.8112 5.42625 10.7587 5.38125L9.89998 4.905L10.4137 7.68375C10.3725 7.79625 10.275 7.82625 10.1625 7.76625L8.99248 6.4425C8.84248 6.68625 8.73748 7.08375 8.53498 7.17375C8.33248 7.26 7.65373 7.005 7.19998 6.91125C7.35748 7.46625 7.83748 8.39625 7.53748 8.7Z" fill="#D52B1E"/>
</g>
<defs>
<clipPath id="clip0_7624_51475">
<rect width="24" height="18" fill="white"/>
</clipPath>
</defs>
</svg>
