<svg width="24" height="18" viewBox="0 0 24 18" fill="none" xmlns="http://www.w3.org/2000/svg">
<g clip-path="url(#clip0_7624_51783)">
<path d="M0 0H24V18H0V0Z" fill="#DE2910"/>
<path d="M2.87979 6.6598L4.49977 1.7998L6.11975 6.6598L1.7998 3.6898H7.19974L2.87979 6.6598Z" fill="#FFDE00"/>
<path d="M9.90624 1.8932L8.23907 2.26265L9.35113 0.966778L9.24206 2.71085L8.31689 1.16682L9.90624 1.8932Z" fill="#FFDE00"/>
<path d="M11.5891 4.02541L9.90917 3.71935L11.4368 2.95621L10.6598 4.52147L10.4059 2.73948L11.5891 4.02541Z" fill="#FFDE00"/>
<path d="M11.3435 7.01729L9.93448 6.05266L11.6405 5.97892L10.2927 7.0912L10.7877 5.36058L11.3435 7.01729Z" fill="#FFDE00"/>
<path d="M9.22448 8.97165L8.29733 7.53765L9.89944 8.12855L8.22667 8.63397L9.3516 7.2288L9.22448 8.97165Z" fill="#FFDE00"/>
</g>
<defs>
<clipPath id="clip0_7624_51783">
<rect width="24" height="18" fill="white"/>
</clipPath>
</defs>
</svg>
