<svg width="24" height="18" viewBox="0 0 24 18" fill="none" xmlns="http://www.w3.org/2000/svg">
<g clip-path="url(#clip0_7624_52357)">
<mask id="mask0_7624_52357" style="mask-type:luminance" maskUnits="userSpaceOnUse" x="-1" y="0" width="26" height="19">
<path d="M-0.00585938 0H24.0558V18.048H-0.00585938V0Z" fill="white"/>
</mask>
<g mask="url(#mask0_7624_52357)">
<path fill-rule="evenodd" clip-rule="evenodd" d="M24.9161 18.048H-0.865723V0H24.9161V18.048Z" fill="#BA0000"/>
<path fill-rule="evenodd" clip-rule="evenodd" d="M11.6588 8.73493C11.6588 8.73493 9.83994 7.95238 10.1008 5.92198C10.3511 4.94556 10.7987 4.27933 11.606 3.91626C11.9867 3.79993 12.3744 3.74706 12.7692 3.71533C12.6635 3.81403 12.5789 3.91273 12.533 4.03258C12.4484 4.25818 12.5119 4.46968 12.6282 4.68471C12.7727 4.93146 12.8609 5.18526 12.8891 5.51661C12.9156 5.7424 12.8819 5.97119 12.7915 6.1798C12.7012 6.3884 12.5573 6.56943 12.3744 6.70453C12.1418 6.88431 11.8668 6.94776 11.6412 7.15221C11.465 7.32141 11.3592 7.49413 11.324 7.79023C11.3169 8.35776 11.4685 8.43883 11.6588 8.73493Z" fill="white"/>
<path fill-rule="evenodd" clip-rule="evenodd" d="M11.3096 5.79866V5.78809V5.79866Z" fill="#BA0000"/>
<path d="M11.3096 5.79866V5.78809" stroke="black" stroke-width="0.24675"/>
<path d="M11.4259 8.52365C10.7209 7.89973 10.7808 6.32405 11.3202 5.79883" stroke="#BA0000" stroke-width="0.24675"/>
<path fill-rule="evenodd" clip-rule="evenodd" d="M11.7537 5.44605L11.87 5.63992L11.6585 5.5518L11.4929 5.72805L11.5211 5.49892L11.3096 5.4108L11.5387 5.35792L11.5669 5.13232L11.6832 5.3262L11.9159 5.27332" fill="#BA0000"/>
<path fill-rule="evenodd" clip-rule="evenodd" d="M11.8135 8.60107C11.8135 8.60107 12.025 6.63059 14.0448 6.28514C15.053 6.24284 15.8214 6.47197 16.4066 7.14172C16.6286 7.46954 16.7908 7.82557 16.9353 8.19217C16.8119 8.12167 16.6956 8.06879 16.5617 8.06174C16.3255 8.04412 16.1387 8.16749 15.9695 8.34022C15.7719 8.55894 15.5255 8.72801 15.2504 8.83372C15.0425 8.92563 14.814 8.961 14.5881 8.93624C14.3621 8.91148 14.1468 8.82747 13.9637 8.69272C13.724 8.51999 13.583 8.27677 13.3222 8.12167C13.1102 7.99564 12.8589 7.95293 12.6172 8.00182C12.0708 8.16397 12.0426 8.33317 11.8135 8.60107Z" fill="white"/>
<path fill-rule="evenodd" clip-rule="evenodd" d="M14.5176 7.40967H14.5282H14.5176Z" fill="#BA0000"/>
<path d="M14.5176 7.40967H14.5282" stroke="black" stroke-width="0.24675"/>
<path d="M11.9443 8.3192C12.3391 7.4591 13.8619 7.05725 14.5211 7.4168" stroke="#BA0000" stroke-width="0.24675"/>
<path fill-rule="evenodd" clip-rule="evenodd" d="M14.986 7.73018L14.8344 7.89585L14.8555 7.66673L14.644 7.56098L14.8661 7.52573L14.8873 7.28955L15.0071 7.50105L15.2327 7.45875L15.0811 7.62443L15.1975 7.83593" fill="#BA0000"/>
<path fill-rule="evenodd" clip-rule="evenodd" d="M11.9478 8.74219C11.9478 8.74219 13.8865 8.31919 14.8524 10.1275C15.2154 11.0687 15.2401 11.8689 14.7924 12.6338C14.5527 12.951 14.2637 13.2154 13.9641 13.4727C13.9923 13.3317 14.0028 13.2048 13.9676 13.0779C13.9112 12.8453 13.7349 12.7078 13.5164 12.6021C13.2452 12.4835 13.006 12.3023 12.8184 12.0733C12.6663 11.9053 12.5612 11.7003 12.5135 11.4787C12.4659 11.2572 12.4774 11.027 12.547 10.8114C12.6316 10.5294 12.8184 10.3179 12.8819 10.0218C12.9346 9.78136 12.8957 9.52992 12.7726 9.31676C12.4448 8.85146 12.2756 8.87614 11.9478 8.74219Z" fill="white"/>
<path fill-rule="evenodd" clip-rule="evenodd" d="M13.9355 10.9312L13.9426 10.9382L13.9355 10.9312Z" fill="#BA0000"/>
<path d="M13.9355 10.9312L13.9426 10.9382" stroke="black" stroke-width="0.24675"/>
<path d="M12.2612 8.77734C13.1989 8.87957 14.0625 10.1944 13.9321 10.9382" stroke="#BA0000" stroke-width="0.24675"/>
<path fill-rule="evenodd" clip-rule="evenodd" d="M13.7807 11.4774L13.5728 11.3857L13.8019 11.3329L13.8301 11.0967L13.9394 11.2976L14.1685 11.2447L14.0099 11.421L14.1156 11.6219L13.9112 11.5303L13.7525 11.71" fill="#BA0000"/>
<path fill-rule="evenodd" clip-rule="evenodd" d="M11.9054 8.94298C11.9054 8.94298 12.8536 10.6843 11.3943 12.1155C10.5906 12.7288 9.82917 12.9791 8.96907 12.7641C8.59895 12.6231 8.26407 12.4222 7.9292 12.2036C8.0702 12.193 8.20062 12.1684 8.31342 12.0979C8.51787 11.978 8.59895 11.77 8.64125 11.5339C8.67794 11.2393 8.78428 10.9578 8.95145 10.7125C9.06973 10.519 9.23693 10.3601 9.4362 10.2518C9.63548 10.1435 9.85978 10.0896 10.0865 10.0957C10.3826 10.0992 10.6364 10.2226 10.9395 10.2014C11.1828 10.1697 11.3731 10.1027 11.5881 9.8912C11.9406 9.45058 11.8701 9.29195 11.9054 8.93945V8.94298Z" fill="white"/>
<path fill-rule="evenodd" clip-rule="evenodd" d="M10.3614 11.4668L10.3579 11.4738L10.3614 11.4668Z" fill="#BA0000"/>
<path d="M10.3614 11.4668L10.3579 11.4738" stroke="black" stroke-width="0.24675"/>
<path d="M11.9548 9.24951C12.1276 10.1801 11.1053 11.3821 10.3545 11.4597" stroke="#BA0000" stroke-width="0.24675"/>
<path fill-rule="evenodd" clip-rule="evenodd" d="M9.79407 11.4702L9.82579 11.2446L9.94212 11.4456L10.1748 11.4103L10.0126 11.5725L10.1289 11.7734L9.91392 11.6712L9.75177 11.8333L9.77997 11.6077L9.56494 11.5055" fill="#BA0000"/>
<path fill-rule="evenodd" clip-rule="evenodd" d="M11.6903 8.90394C11.6903 8.90394 10.3649 10.3774 8.52485 9.48204C7.67885 8.92862 7.1924 8.29059 7.11133 7.40934C7.1219 7.01102 7.19593 6.63032 7.2911 6.24609C7.35103 6.37299 7.418 6.48579 7.52023 6.57039C7.7 6.72197 7.9256 6.72902 8.1653 6.69024C8.45301 6.62724 8.75167 6.6345 9.03598 6.71139C9.25859 6.75826 9.46486 6.86315 9.63386 7.01544C9.80286 7.16773 9.92859 7.36199 9.9983 7.57854C10.0935 7.85702 10.0618 8.13902 10.1851 8.41749C10.2909 8.63604 10.4178 8.79114 10.6892 8.92509C11.225 9.11192 11.3484 8.99207 11.6903 8.90747V8.90394Z" fill="white"/>
<path fill-rule="evenodd" clip-rule="evenodd" d="M8.79611 8.29063L8.78906 8.28711L8.79611 8.29063Z" fill="#BA0000"/>
<path d="M8.79611 8.29063L8.78906 8.28711" stroke="black" stroke-width="0.24675"/>
<path d="M11.4154 9.05577C10.5976 9.5246 9.1241 8.9606 8.7998 8.28027" stroke="#BA0000" stroke-width="0.24675"/>
<path fill-rule="evenodd" clip-rule="evenodd" d="M8.60613 7.75485L8.82821 7.70902L8.67663 7.88527L8.78591 8.09325L8.58146 7.99455L8.42988 8.1708L8.45456 7.9311L8.24658 7.8324L8.46866 7.78657L8.49333 7.54688" fill="#BA0000"/>
</g>
</g>
<defs>
<clipPath id="clip0_7624_52357">
<rect width="24" height="18" fill="white"/>
</clipPath>
</defs>
</svg>
