<svg width="24" height="18" viewBox="0 0 24 18" fill="none" xmlns="http://www.w3.org/2000/svg">
<g clip-path="url(#clip0_7624_52540)">
<path fill-rule="evenodd" clip-rule="evenodd" d="M0 0H24V18H0V0Z" fill="#00247D"/>
<path d="M18.3906 4.01953V4.58838L19.5283 4.01953H18.3906Z" fill="white"/>
<path d="M18.6332 4.6521L18.2988 4.19189L19.5536 3.98338L18.6332 4.6521Z" fill="white"/>
<path d="M18.3911 4.01953V4.58838L17.2534 4.01953H18.3911Z" fill="white"/>
<path d="M18.1485 4.6521L18.4829 4.19189L17.2281 3.98338L18.1485 4.6521Z" fill="white"/>
<path d="M18.7153 4.25586L18.1743 4.43164L19.0669 5.33787L18.7153 4.25586Z" fill="white"/>
<path d="M18.1886 4.6814L18.5229 4.22119L19.109 5.35012L18.1886 4.6814Z" fill="white"/>
<path d="M18.0664 4.25537L18.6074 4.43115L18.418 3.17336L18.0664 4.25537Z" fill="white"/>
<path d="M18.7427 4.22021L18.2017 4.396L18.3911 3.1382L18.7427 4.22021Z" fill="white"/>
<path d="M18.0659 4.25586L18.6069 4.43164L17.7144 5.33787L18.0659 4.25586Z" fill="white"/>
<path d="M18.5927 4.6814L18.2583 4.22119L17.6722 5.35012L18.5927 4.6814Z" fill="white"/>
<path d="M18.3906 4.13525V4.51114L19.1424 4.13525H18.3906Z" fill="#CC142B"/>
<path d="M18.551 4.55313L18.3301 4.24902L19.1592 4.11124L18.551 4.55313Z" fill="#CC142B"/>
<path d="M18.3911 4.13525V4.51114L17.6393 4.13525H18.3911Z" fill="#CC142B"/>
<path d="M18.2307 4.55313L18.4517 4.24902L17.6225 4.11124L18.2307 4.55313Z" fill="#CC142B"/>
<path d="M18.6055 4.29102L18.248 4.40717L18.8378 5.006L18.6055 4.29102Z" fill="#CC142B"/>
<path d="M18.2576 4.57266L18.4785 4.26855L18.8658 5.01454L18.2576 4.57266Z" fill="#CC142B"/>
<path d="M18.1768 4.29102L18.5343 4.40717L18.4091 3.57603L18.1768 4.29102Z" fill="#CC142B"/>
<path d="M18.6236 4.26812L18.2661 4.38428L18.3913 3.55313L18.6236 4.26812Z" fill="#CC142B"/>
<path d="M18.1763 4.29102L18.5338 4.40717L17.944 5.006L18.1763 4.29102Z" fill="#CC142B"/>
<path d="M18.5242 4.57266L18.3032 4.26855L17.916 5.01454L18.5242 4.57266Z" fill="#CC142B"/>
<path d="M21.3726 6.64453L21.3726 7.15073L22.385 6.64453L21.3726 6.64453Z" fill="white"/>
<path d="M21.5881 7.20738L21.2905 6.79785L22.4071 6.6123L21.5881 7.20738Z" fill="white"/>
<path d="M21.3721 6.64453L21.3721 7.15073L20.3597 6.64453L21.3721 6.64453Z" fill="white"/>
<path d="M21.1566 7.20738L21.4541 6.79785L20.3375 6.6123L21.1566 7.20738Z" fill="white"/>
<path d="M21.6611 6.85449L21.1797 7.01092L21.974 7.81734L21.6611 6.85449Z" fill="white"/>
<path d="M21.1927 7.23374L21.4902 6.82422L22.0117 7.82882L21.1927 7.23374Z" fill="white"/>
<path d="M21.0835 6.85449L21.5649 7.01092L21.3963 5.89164L21.0835 6.85449Z" fill="white"/>
<path d="M21.685 6.82356L21.2036 6.97998L21.3722 5.86071L21.685 6.82356Z" fill="white"/>
<path d="M21.083 6.85449L21.5644 7.01092L20.7702 7.81734L21.083 6.85449Z" fill="white"/>
<path d="M21.5514 7.23374L21.2539 6.82422L20.7324 7.82882L21.5514 7.23374Z" fill="white"/>
<path d="M21.3726 6.76025L21.3726 7.0735L21.999 6.76025L21.3726 6.76025Z" fill="#CC142B"/>
<path d="M21.5059 7.1084L21.3218 6.85498L22.0127 6.74016L21.5059 7.1084Z" fill="#CC142B"/>
<path d="M21.3721 6.76025L21.3721 7.0735L20.7456 6.76025L21.3721 6.76025Z" fill="#CC142B"/>
<path d="M21.2387 7.1084L21.4229 6.85498L20.7319 6.74016L21.2387 7.1084Z" fill="#CC142B"/>
<path d="M21.5508 6.89062L21.2529 6.98742L21.7444 7.48645L21.5508 6.89062Z" fill="#CC142B"/>
<path d="M21.2612 7.125L21.4453 6.87158L21.768 7.49324L21.2612 7.125Z" fill="#CC142B"/>
<path d="M21.1934 6.89014L21.4913 6.98693L21.387 6.29431L21.1934 6.89014Z" fill="#CC142B"/>
<path d="M21.5655 6.87098L21.2676 6.96777L21.3719 6.27515L21.5655 6.87098Z" fill="#CC142B"/>
<path d="M21.1938 6.89062L21.4918 6.98742L21.0003 7.48645L21.1938 6.89062Z" fill="#CC142B"/>
<path d="M21.4834 7.125L21.2993 6.87158L20.9766 7.49324L21.4834 7.125Z" fill="#CC142B"/>
<path d="M14.9185 7.51514L14.9185 8.08398L16.0562 7.51514L14.9185 7.51514Z" fill="white"/>
<path d="M15.161 8.14771L14.8267 7.6875L16.0814 7.47899L15.161 8.14771Z" fill="white"/>
<path d="M14.9189 7.51514L14.9189 8.08398L13.7812 7.51514L14.9189 7.51514Z" fill="white"/>
<path d="M14.6764 8.14771L15.0107 7.6875L13.756 7.47899L14.6764 8.14771Z" fill="white"/>
<path d="M15.2432 7.75146L14.7022 7.92725L15.5947 8.83348L15.2432 7.75146Z" fill="white"/>
<path d="M14.7164 8.177L15.0508 7.7168L15.6368 8.84573L14.7164 8.177Z" fill="white"/>
<path d="M14.5942 7.75098L15.1352 7.92676L14.9458 6.66896L14.5942 7.75098Z" fill="white"/>
<path d="M15.2705 7.71582L14.7295 7.8916L14.9189 6.63381L15.2705 7.71582Z" fill="white"/>
<path d="M14.5938 7.75146L15.1348 7.92725L14.2422 8.83348L14.5938 7.75146Z" fill="white"/>
<path d="M15.1205 8.177L14.7861 7.7168L14.2001 8.84573L15.1205 8.177Z" fill="white"/>
<path d="M14.9185 7.63135L14.9185 8.00724L15.6702 7.63135L14.9185 7.63135Z" fill="#CC142B"/>
<path d="M15.0789 8.04922L14.8579 7.74512L15.6871 7.60733L15.0789 8.04922Z" fill="#CC142B"/>
<path d="M14.9189 7.63135L14.9189 8.00724L14.1672 7.63135L14.9189 7.63135Z" fill="#CC142B"/>
<path d="M14.7585 8.04922L14.9795 7.74512L14.1503 7.60733L14.7585 8.04922Z" fill="#CC142B"/>
<path d="M15.1333 7.78711L14.7758 7.90327L15.3656 8.5021L15.1333 7.78711Z" fill="#CC142B"/>
<path d="M14.7854 8.06875L15.0063 7.76465L15.3936 8.51064L14.7854 8.06875Z" fill="#CC142B"/>
<path d="M14.7046 7.78711L15.0621 7.90327L14.9369 7.07212L14.7046 7.78711Z" fill="#CC142B"/>
<path d="M15.1514 7.76421L14.7939 7.88037L14.9191 7.04923L15.1514 7.76421Z" fill="#CC142B"/>
<path d="M14.7041 7.78711L15.0616 7.90327L14.4718 8.5021L14.7041 7.78711Z" fill="#CC142B"/>
<path d="M15.052 8.06875L14.8311 7.76465L14.4438 8.51064L15.052 8.06875Z" fill="#CC142B"/>
<path d="M18.3911 13.0034V13.6349L19.6541 13.0034H18.3911Z" fill="white"/>
<path d="M18.6602 13.7052L18.2891 13.1943L19.682 12.9629L18.6602 13.7052Z" fill="white"/>
<path d="M18.3911 13.0034V13.6349L17.1281 13.0034H18.3911Z" fill="white"/>
<path d="M18.122 13.7052L18.4932 13.1943L17.1002 12.9629L18.122 13.7052Z" fill="white"/>
<path d="M18.7515 13.2651L18.1509 13.4603L19.1418 14.4663L18.7515 13.2651Z" fill="white"/>
<path d="M18.1669 13.7379L18.5381 13.2271L19.1887 14.4803L18.1669 13.7379Z" fill="white"/>
<path d="M18.0308 13.2651L18.6314 13.4603L18.421 12.064L18.0308 13.2651Z" fill="white"/>
<path d="M18.7813 13.2262L18.1807 13.4214L18.391 12.0251L18.7813 13.2262Z" fill="white"/>
<path d="M18.0303 13.2651L18.6309 13.4603L17.64 14.4663L18.0303 13.2651Z" fill="white"/>
<path d="M18.6148 13.7379L18.2437 13.2271L17.5931 14.4803L18.6148 13.7379Z" fill="white"/>
<path d="M18.3911 13.1191V13.5577L19.2682 13.1191H18.3911Z" fill="#CC142B"/>
<path d="M18.5781 13.6067L18.3203 13.252L19.2877 13.0912L18.5781 13.6067Z" fill="#CC142B"/>
<path d="M18.3911 13.1191V13.5577L17.514 13.1191H18.3911Z" fill="#CC142B"/>
<path d="M18.2041 13.6067L18.4619 13.252L17.4946 13.0912L18.2041 13.6067Z" fill="#CC142B"/>
<path d="M18.6411 13.3008L18.224 13.4363L18.9121 14.1349L18.6411 13.3008Z" fill="#CC142B"/>
<path d="M18.2354 13.6292L18.4932 13.2744L18.945 14.1447L18.2354 13.6292Z" fill="#CC142B"/>
<path d="M18.1411 13.3008L18.5582 13.4363L18.4121 12.4666L18.1411 13.3008Z" fill="#CC142B"/>
<path d="M18.6622 13.2737L18.2451 13.4092L18.3912 12.4395L18.6622 13.2737Z" fill="#CC142B"/>
<path d="M18.1406 13.3008L18.5577 13.4363L17.8696 14.1349L18.1406 13.3008Z" fill="#CC142B"/>
<path d="M18.5463 13.6292L18.2886 13.2744L17.8368 14.1447L18.5463 13.6292Z" fill="#CC142B"/>
<path d="M0 0H12V9H0V0Z" fill="#012169"/>
<path d="M1.40625 0L5.98125 3.39375L10.5375 0H12V1.1625L7.5 4.51875L12 7.85625V9H10.5L6 5.64375L1.51875 9H0V7.875L4.48125 4.5375L0 1.2V0H1.40625Z" fill="white"/>
<path d="M7.95 5.26875L12 8.25V9L6.91875 5.26875H7.95ZM4.5 5.64375L4.6125 6.3L1.0125 9H0L4.5 5.64375ZM12 0V0.05625L7.33125 3.58125L7.36875 2.75625L11.0625 0H12ZM0 0L4.48125 3.3H3.35625L0 0.7875V0Z" fill="#C8102E"/>
<path d="M4.51875 0V9H7.51875V0H4.51875ZM0 3V6H12V3H0Z" fill="white"/>
<path d="M0 3.61875V5.41875H12V3.61875H0ZM5.11875 0V9H6.91875V0H5.11875Z" fill="#C8102E"/>
</g>
<defs>
<clipPath id="clip0_7624_52540">
<rect width="24" height="18" fill="white"/>
</clipPath>
</defs>
</svg>
