<svg width="24" height="18" viewBox="0 0 24 18" fill="none" xmlns="http://www.w3.org/2000/svg">
<g clip-path="url(#clip0_7624_52526)">
<mask id="mask0_7624_52526" style="mask-type:luminance" maskUnits="userSpaceOnUse" x="0" y="0" width="24" height="18">
<path d="M0 0H24V18H0V0Z" fill="white"/>
</mask>
<g mask="url(#mask0_7624_52526)">
<path fill-rule="evenodd" clip-rule="evenodd" d="M-0.75 0H26.25V18H-0.75V0Z" fill="white"/>
<path fill-rule="evenodd" clip-rule="evenodd" d="M-0.75 0H26.25V9H-0.75V0Z" fill="#DF0000"/>
<path fill-rule="evenodd" clip-rule="evenodd" d="M5.47488 1.50755C4.76456 1.66021 4.12838 2.05259 3.67316 2.61884C3.21794 3.18508 2.97139 3.8907 2.97491 4.61723C2.97843 5.34376 3.2318 6.04697 3.69248 6.60877C4.15317 7.17058 4.79312 7.55679 5.50488 7.70255C5.09713 7.82054 4.6701 7.85687 4.24828 7.80947C3.82646 7.76206 3.41815 7.63185 3.04676 7.42629C2.67537 7.22074 2.34821 6.94389 2.08405 6.61163C1.81989 6.27936 1.62392 5.89822 1.50738 5.49005C1.27592 4.66959 1.37873 3.79085 1.79333 3.04597C2.20794 2.30109 2.9006 1.75067 3.71988 1.51505C4.31988 1.34255 4.87488 1.3388 5.47863 1.50755H5.47488Z" fill="white"/>
<path fill-rule="evenodd" clip-rule="evenodd" d="M4.9874 4.12492L5.17115 4.68742L4.68365 4.34242L4.20365 4.69492L4.3799 4.12492L3.8999 3.77617L4.49615 3.76867L4.68365 3.20617L4.87115 3.76867H5.46365L4.9874 4.12492ZM5.64365 6.07492L5.83115 6.64117L5.34365 6.29617L4.8599 6.64492L5.0399 6.07867L4.5599 5.72617L5.15615 5.72242L5.3399 5.15617L5.5274 5.71867H6.1274L5.64365 6.07492ZM7.8374 6.05992L8.02115 6.62992L7.53365 6.28117L7.05365 6.62992L7.2299 6.06367L6.7499 5.71492L7.34615 5.70742L7.53365 5.14492L7.72115 5.70742H8.31365L7.8374 6.05992ZM8.4899 4.12492L8.67365 4.69117L8.18615 4.34617L7.70615 4.69492L7.88615 4.12867L7.4024 3.77617L8.0024 3.77242L8.1824 3.20617L8.3699 3.76867H8.9699L8.4899 4.12492ZM6.75365 2.83867L6.94115 3.40867L6.45365 3.05992L5.9699 3.41242L6.1499 2.84242L5.6699 2.48992L6.2624 2.48617L6.4499 1.91992L6.6374 2.48242H7.2374L6.75365 2.83867Z" fill="white"/>
</g>
</g>
<defs>
<clipPath id="clip0_7624_52526">
<rect width="24" height="18" fill="white"/>
</clipPath>
</defs>
</svg>
