<svg width="24" height="16" viewBox="0 0 24 16" fill="none" xmlns="http://www.w3.org/2000/svg">
<path d="M24 15.8H0V0H24V15.8Z" fill="#D52B1E"/>
<path d="M0 0H12V7.9H0V0Z" fill="#002654"/>
<path d="M4.5001 4.0001C4.5001 3.6001 4.7001 3.2001 4.9001 3.0001L3.7001 2.6001C3.6001 2.6001 3.6001 2.7001 3.6001 2.7001L4.5001 3.6001L3.3001 3.9001C3.2001 3.9001 3.2001 4.0001 3.3001 4.0001L4.6001 4.3001L3.6001 5.3001C3.5001 5.4001 3.6001 5.4001 3.7001 5.4001L5.0001 5.0001C4.7001 4.7001 4.5001 4.4001 4.5001 4.0001Z" fill="#F5F5F5"/>
<path d="M5.0001 2.9001C5.3001 2.6001 5.6001 2.5001 6.0001 2.5001C6.4001 2.5001 6.8001 2.7001 7.0001 2.9001L7.4001 1.7001C7.4001 1.6001 7.3001 1.6001 7.3001 1.6001L6.4001 2.5001L6.1001 1.3001C6.1001 1.2001 6.0001 1.2001 6.0001 1.3001L5.6001 2.5001L4.7001 1.6001C4.6001 1.5001 4.6001 1.6001 4.6001 1.7001L5.0001 2.9001Z" fill="#F5F5F5"/>
<path d="M7.0001 5C6.8001 5.3 6.4001 5.5 6.0001 5.5C5.6001 5.5 5.2001 5.3 5.0001 5L4.6001 6.2C4.6001 6.3 4.7001 6.3 4.7001 6.3L5.6001 5.4L5.9001 6.7C5.9001 6.8 6.0001 6.8 6.0001 6.7L6.3001 5.4L7.2001 6.3C7.3001 6.4 7.3001 6.3 7.3001 6.2L7.0001 5Z" fill="#F5F5F5"/>
<path d="M8.7 3.9001L7.4 3.6001L8.3 2.7001C8.4 2.6001 8.3 2.6001 8.2 2.6001L7 2.9001C7.3 3.2001 7.4 3.5001 7.4 3.9001C7.4 4.3001 7.2 4.7001 7 4.9001L8.2 5.3001C8.3 5.3001 8.3 5.2001 8.3 5.2001L7.4 4.4001L8.7 4.1001C8.8 4.0001 8.8 3.9001 8.7 3.9001Z" fill="#F5F5F5"/>
<path d="M5.9998 5.0998C6.6998 5.0998 7.1998 4.5998 7.1998 3.8998C7.1998 3.1998 6.6998 2.7998 5.9998 2.7998C5.2998 2.7998 4.7998 3.2998 4.7998 3.9998C4.7998 4.69981 5.2998 5.0998 5.9998 5.0998Z" fill="#F5F5F5"/>
</svg>
