<svg width="48" height="48" viewBox="0 0 48 48" fill="none" xmlns="http://www.w3.org/2000/svg">
<g clip-path="url(#clip0_219_371)">
<path d="M33.308 13.0898L19.1078 26.1167L25.3939 31.6294L33.308 13.0898Z" fill="#93B1AF"/>
<path d="M10.9368 18.9516L15.7474 23.17L33.308 13.0898L10.9368 18.9516Z" fill="#93B1AF"/>
<path d="M15.7474 23.17L19.0913 26.1317L19.1078 26.1167L15.7474 23.17Z" fill="#D2D2D2"/>
<path d="M14.7423 30.0507L20.8387 27.6066L19.1078 26.1167L14.7423 30.0507Z" fill="#316E68"/>
<path d="M33.308 13.0898L15.7474 23.17L14.7423 30.0507L19.1675 26.0625L33.308 13.0898Z" fill="#D2D2D2"/>
<path d="M0.549503 42.9C0.361321 42.9 0.186581 42.7796 0.123854 42.59C0.0685947 42.423 0.0282701 42.2484 0.00437402 42.0708C-0.0299766 41.824 0.141776 41.5952 0.386711 41.5621C0.633139 41.529 0.858658 41.7006 0.891515 41.9474C0.907944 42.0708 0.93632 42.1912 0.973658 42.3071C1.05132 42.5434 0.924372 42.7992 0.689892 42.8775C0.643594 42.8925 0.595801 42.9 0.548009 42.9H0.549503Z" fill="#D2D2D2"/>
<path d="M0.707818 40.8231C0.646584 40.8231 0.585351 40.8111 0.525611 40.784C0.300092 40.6817 0.198533 40.4153 0.298598 40.188C0.424052 39.9051 0.583857 39.6327 0.772039 39.3799C0.919896 39.1797 1.20217 39.1406 1.39931 39.2896C1.59795 39.4386 1.63678 39.7215 1.48892 39.9217C1.34106 40.1218 1.21561 40.3355 1.11704 40.5568C1.04236 40.7253 0.879571 40.8246 0.707818 40.8246V40.8231ZM2.37009 38.9946C2.21924 38.9946 2.07288 38.9179 1.98775 38.7809C1.85782 38.5687 1.92353 38.2903 2.13411 38.1594C2.37457 38.0104 2.63892 37.8689 2.9197 37.741C3.14522 37.6386 3.41106 37.738 3.51262 37.9652C3.61567 38.1925 3.5156 38.4604 3.29009 38.5627C3.04366 38.6756 2.81216 38.799 2.60457 38.9284C2.53139 38.9735 2.44924 38.9961 2.37009 38.9961V38.9946ZM4.67456 38.0435C4.47891 38.0435 4.29969 37.9125 4.24294 37.7139C4.17573 37.4731 4.31463 37.2248 4.55359 37.1571C4.83138 37.0788 5.11067 37.0066 5.36904 36.9403C5.6095 36.8786 5.85294 37.0246 5.91417 37.2669C5.9754 37.5092 5.83054 37.7545 5.59008 37.8162C5.33619 37.8809 5.06437 37.9517 4.79554 38.0284C4.75521 38.0405 4.71489 38.045 4.67456 38.045V38.0435ZM7.08807 37.3903C6.8969 37.3903 6.72066 37.2669 6.66092 37.0728C6.58774 36.835 6.71917 36.5822 6.95514 36.5069C7.23144 36.4196 7.47787 36.3323 7.70787 36.239C7.93787 36.1472 8.19774 36.2586 8.29034 36.4904C8.38293 36.7221 8.27092 36.984 8.04092 37.0773C7.78852 37.1796 7.52118 37.2744 7.22248 37.3678C7.17768 37.3813 7.13287 37.3888 7.08956 37.3888L7.08807 37.3903ZM9.34774 36.3338C9.20137 36.3338 9.05949 36.2616 8.97287 36.1307C8.83696 35.923 8.89371 35.6431 9.10131 35.5046C9.31936 35.3601 9.53442 35.2021 9.74053 35.0366C9.93319 34.8801 10.2155 34.9117 10.3708 35.1058C10.5261 35.2999 10.4947 35.5844 10.3021 35.7409C10.0736 35.926 9.83611 36.0991 9.59416 36.2601C9.518 36.3098 9.43287 36.3338 9.34774 36.3338V36.3338ZM11.2206 34.6769C11.116 34.6769 11.0115 34.6408 10.9264 34.5655C10.7397 34.4015 10.7203 34.117 10.8831 33.9289C11.0563 33.7288 11.2236 33.5181 11.3789 33.3029C11.5253 33.1012 11.8045 33.0575 12.0047 33.205C12.2048 33.3525 12.2481 33.6355 12.1018 33.8356C11.93 34.0719 11.7478 34.3021 11.5581 34.5219C11.47 34.6242 11.3446 34.6769 11.2206 34.6769V34.6769Z" fill="#D2D2D2"/>
<path d="M12.6096 32.5865C12.5423 32.5865 12.4736 32.5715 12.4094 32.5384C12.1884 32.427 12.0988 32.1561 12.2093 31.9319C12.2735 31.8009 12.3362 31.67 12.3915 31.5421C12.4916 31.3148 12.7559 31.211 12.9829 31.3133C13.2084 31.4142 13.3115 31.682 13.2099 31.9093C13.1472 32.0493 13.08 32.1937 13.0098 32.3367C12.9307 32.4947 12.7738 32.5865 12.6096 32.5865V32.5865Z" fill="#D2D2D2"/>
<path d="M15.0507 13.827C15.0701 13.7205 15.0821 13.6125 15.0821 13.5C15.0821 12.5055 14.2791 11.7 13.2878 11.7C12.7749 11.7 12.3129 11.9175 11.9869 12.2625C11.7208 11.898 11.341 11.6205 10.8984 11.4885C10.529 10.3905 9.49731 9.59998 8.27867 9.59998C6.7565 9.59998 5.52291 10.833 5.51394 12.357C4.52258 12.5715 3.75402 13.3845 3.60001 14.4H15.9C15.7056 14.109 15.4036 13.899 15.0492 13.827H15.0507Z" fill="#17AED0"/>
<path d="M47.4479 29.127C47.4673 29.0205 47.4793 28.9125 47.4793 28.8C47.4793 27.8055 46.6765 27 45.6854 27C45.1727 27 44.7108 27.2175 44.3849 27.5625C44.1188 27.198 43.7391 26.9205 43.2966 26.7885C42.9273 25.6905 41.8959 24.9 40.6775 24.9C39.1557 24.9 37.9224 26.133 37.9135 27.657C36.9223 27.8715 36.154 28.6845 36 29.7H48.3C48.1057 29.409 47.8037 29.199 47.4494 29.127H47.4479Z" fill="#316E68"/>
<path d="M32.2813 6.24367C31.6739 6.24367 31.1151 6.45328 30.6804 6.80313C30.3048 6.12557 29.5687 5.66649 28.7236 5.66649C28.4449 5.66649 28.1798 5.71816 27.933 5.80968C27.5392 5.20298 26.8455 4.79999 26.0549 4.79999C24.8735 4.79999 23.9118 5.69749 23.8391 6.8297C23.7876 6.82675 23.7361 6.82232 23.6831 6.82232C22.8031 6.82232 22.0292 7.26369 21.5779 7.92944C21.328 7.77739 21.0341 7.68882 20.7176 7.68882C20.0269 7.68882 19.4378 8.10805 19.2 8.69999H34.8C34.8 7.3434 33.6716 6.24367 32.2798 6.24367H32.2813Z" fill="#D2D2D2"/>
</g>
<defs>
<clipPath id="clip0_219_371">
<rect width="48" height="47.7019" fill="white"/>
</clipPath>
</defs>
</svg>
