<svg width="48" height="48" viewBox="0 0 48 48" fill="none" xmlns="http://www.w3.org/2000/svg">
<path d="M20.1923 16.3616L19.5 27.2654C13.5462 17.1578 5.82693 19.3616 2.71155 21.7269L12.0577 13.7654C16.2115 11.6885 19.2116 14.6308 20.1923 16.3616Z" fill="#D2D2D2"/>
<path d="M27.8077 16.2105L28.5 27.1143C34.4539 17.0067 42.1731 19.2105 45.2885 21.5758L35.9423 13.6143C31.7885 11.5374 28.7885 14.4797 27.8077 16.2105Z" fill="#D2D2D2"/>
<path d="M28.3269 23.977C25.0385 20.3423 21.1731 22.3164 19.6731 23.9769L20.1923 16.3616C22.8231 13.2066 26.7692 14.4463 27.8077 16.1883L28.3269 23.977Z" fill="#D2D2D2"/>
<path d="M19.5 26.4C19.5 31.3706 15.4706 35.4 10.5 35.4C5.52944 35.4 1.5 31.3706 1.5 26.4C1.5 21.4294 5.52944 17.4 10.5 17.4C15.4706 17.4 19.5 21.4294 19.5 26.4Z" fill="#17AED0"/>
<path d="M46.5 26.4C46.5 31.3706 42.4706 35.4 37.5 35.4C32.5294 35.4 28.5 31.3706 28.5 26.4C28.5 21.4294 32.5294 17.4 37.5 17.4C42.4706 17.4 46.5 21.4294 46.5 26.4Z" fill="#17AED0"/>
<path d="M17.7692 26.4C17.7692 30.4147 14.5147 33.6692 10.5 33.6692C6.48532 33.6692 3.23077 30.4147 3.23077 26.4C3.23077 22.3853 6.48532 19.1308 10.5 19.1308C14.5147 19.1308 17.7692 22.3853 17.7692 26.4Z" fill="#316E68"/>
<path d="M44.7692 26.4C44.7692 30.4147 41.5147 33.6692 37.5 33.6692C33.4853 33.6692 30.2308 30.4147 30.2308 26.4C30.2308 22.3853 33.4853 19.1308 37.5 19.1308C41.5147 19.1308 44.7692 22.3853 44.7692 26.4Z" fill="#316E68"/>
<mask id="mask0_219_227" style="mask-type:alpha" maskUnits="userSpaceOnUse" x="30" y="19" width="15" height="15">
<circle cx="37.5" cy="26.4" r="7.26923" fill="#EDF0F3"/>
</mask>
<g mask="url(#mask0_219_227)">
<path d="M40.9615 19.8231L31.6154 30.9" stroke="white" stroke-width="1.5"/>
<path d="M42.8654 21.5538L33.8654 32.6308" stroke="white" stroke-width="0.6"/>
</g>
<mask id="mask1_219_227" style="mask-type:alpha" maskUnits="userSpaceOnUse" x="3" y="19" width="15" height="15">
<circle cx="10.5" cy="26.4" r="7.26923" fill="#EDF0F3"/>
</mask>
<g mask="url(#mask1_219_227)">
<path d="M13.9615 19.8231L4.61536 30.9" stroke="white" stroke-width="1.5"/>
<path d="M15.8654 21.5538L6.86536 32.6308" stroke="white" stroke-width="0.6"/>
</g>
</svg>
