<svg width="48" height="48" viewBox="0 0 48 48" fill="none" xmlns="http://www.w3.org/2000/svg">
<path d="M43.5001 17.791H13.132V40.5H43.5001V17.791Z" fill="#D2D2D2"/>
<path d="M43.5001 17.791H13.132V21.1483H43.5001V17.791Z" fill="#17AED0"/>
<path d="M29.1716 17.9956V10.3237L10.3619 16.8704V24.4401" stroke="#316E68" stroke-width="0.9" stroke-miterlimit="10"/>
<path d="M11.5456 16.8704C11.5456 17.5216 11.0161 18.0502 10.3619 18.0502C9.70765 18.0502 9.17812 17.5216 9.17812 16.8704C9.17812 16.2192 9.70765 15.6906 10.3619 15.6906C11.0161 15.6906 11.5456 16.2192 11.5456 16.8704Z" fill="#316E68" stroke="#316E68" stroke-width="0.3"/>
<path d="M29.1408 11.6596C29.8774 11.6596 30.4746 11.0642 30.4746 10.3298C30.4746 9.59537 29.8774 9 29.1408 9C28.4042 9 27.8071 9.59537 27.8071 10.3298C27.8071 11.0642 28.4042 11.6596 29.1408 11.6596Z" fill="#316E68"/>
<path d="M12.5165 27.6111L10.3004 24.4339L8.24649 27.6111" stroke="#316E68" stroke-width="0.9" stroke-miterlimit="10"/>
<path d="M38.5753 24.1332H19.0822V30.0314H38.5753V24.1332Z" fill="white"/>
<path d="M22.3653 28.497C23.1585 28.497 23.8016 27.8558 23.8016 27.0649C23.8016 26.274 23.1585 25.6328 22.3653 25.6328C21.572 25.6328 20.9289 26.274 20.9289 27.0649C20.9289 27.8558 21.572 28.497 22.3653 28.497Z" fill="#D2D2D2"/>
<path d="M36.3366 25.5305H26.2536V26.4266H36.3366V25.5305Z" fill="#D2D2D2"/>
<path d="M36.3366 27.7032H26.2536V28.5993H36.3366V27.7032Z" fill="#D2D2D2"/>
<path d="M38.5753 32.112H19.0822V38.0102H38.5753V32.112Z" fill="white"/>
<path d="M22.3653 36.4758C23.1585 36.4758 23.8016 35.8346 23.8016 35.0437C23.8016 34.2528 23.1585 33.6116 22.3653 33.6116C21.572 33.6116 20.9289 34.2528 20.9289 35.0437C20.9289 35.8346 21.572 36.4758 22.3653 36.4758Z" fill="#D2D2D2"/>
<path d="M36.3366 33.5093H26.2536V34.4054H36.3366V33.5093Z" fill="#D2D2D2"/>
<path d="M36.3366 35.682H26.2536V36.5781H36.3366V35.682Z" fill="#D2D2D2"/>
<path d="M16.8253 25.7576H4.20001V38.3457H16.8253V25.7576Z" fill="#316E68"/>
<path d="M16.8253 25.7576H4.20001V27.425H16.8253V25.7576Z" fill="#316E68"/>
<path d="M10.5547 36.6047C12.7713 36.6047 14.5682 34.8131 14.5682 32.603C14.5682 30.3929 12.7713 28.6013 10.5547 28.6013C8.33812 28.6013 6.54121 30.3929 6.54121 32.603C6.54121 34.8131 8.33812 36.6047 10.5547 36.6047Z" fill="white"/>
<path d="M12.4507 32.0813H8.65671C8.54792 32.0813 8.45973 32.1693 8.45973 32.2777V32.9283C8.45973 33.0368 8.54792 33.1247 8.65671 33.1247H12.4507C12.5595 33.1247 12.6477 33.0368 12.6477 32.9283V32.2777C12.6477 32.1693 12.5595 32.0813 12.4507 32.0813Z" fill="#316E68"/>
<path d="M11.078 34.4934V30.7106C11.078 30.6021 10.9898 30.5142 10.881 30.5142H10.2285C10.1197 30.5142 10.0315 30.6021 10.0315 30.7106V34.4934C10.0315 34.6019 10.1197 34.6898 10.2285 34.6898H10.881C10.9898 34.6898 11.078 34.6019 11.078 34.4934Z" fill="#316E68"/>
</svg>
