<svg width="48" height="48" viewBox="0 0 48 48" fill="none" xmlns="http://www.w3.org/2000/svg">
<path d="M40.145 7.2H7.55497C7.19324 7.2 6.89999 7.49322 6.89999 7.85493V16.834C6.89999 17.1957 7.19324 17.489 7.55497 17.489H40.145C40.5068 17.489 40.8 17.1957 40.8 16.834V7.85493C40.8 7.49322 40.5068 7.2 40.145 7.2Z" fill="#D2D2D2"/>
<path d="M12.6105 14.8125C13.9901 14.8125 15.1085 13.6942 15.1085 12.3147C15.1085 10.9352 13.9901 9.81689 12.6105 9.81689C11.2309 9.81689 10.1125 10.9352 10.1125 12.3147C10.1125 13.6942 11.2309 14.8125 12.6105 14.8125Z" fill="white"/>
<path d="M36.2492 9.63828H20.025C19.6633 9.63828 19.3701 9.9315 19.3701 10.2932V10.5484C19.3701 10.9101 19.6633 11.2033 20.025 11.2033H36.2492C36.6109 11.2033 36.9042 10.9101 36.9042 10.5484V10.2932C36.9042 9.9315 36.6109 9.63828 36.2492 9.63828Z" fill="white"/>
<path d="M36.2492 13.4261H20.025C19.6633 13.4261 19.3701 13.7193 19.3701 14.081V14.3362C19.3701 14.6979 19.6633 14.9911 20.025 14.9911H36.2492C36.6109 14.9911 36.9042 14.6979 36.9042 14.3362V14.081C36.9042 13.7193 36.6109 13.4261 36.2492 13.4261Z" fill="white"/>
<path d="M40.145 30.511H7.55497C7.19324 30.511 6.89999 30.8043 6.89999 31.166V40.1451C6.89999 40.5068 7.19324 40.8 7.55497 40.8H40.145C40.5068 40.8 40.8 40.5068 40.8 40.1451V31.166C40.8 30.8043 40.5068 30.511 40.145 30.511Z" fill="#D2D2D2"/>
<path d="M12.6105 38.1236C13.9901 38.1236 15.1085 37.0053 15.1085 35.6258C15.1085 34.2463 13.9901 33.1279 12.6105 33.1279C11.2309 33.1279 10.1125 34.2463 10.1125 35.6258C10.1125 37.0053 11.2309 38.1236 12.6105 38.1236Z" fill="white"/>
<path d="M36.2492 32.9493H20.025C19.6633 32.9493 19.3701 33.2425 19.3701 33.6043V33.8594C19.3701 34.2211 19.6633 34.5144 20.025 34.5144H36.2492C36.6109 34.5144 36.9042 34.2211 36.9042 33.8594V33.6043C36.9042 33.2425 36.6109 32.9493 36.2492 32.9493Z" fill="white"/>
<path d="M36.2492 36.7372H20.025C19.6633 36.7372 19.3701 37.0304 19.3701 37.3921V37.6473C19.3701 38.009 19.6633 38.3022 20.025 38.3022H36.2492C36.6109 38.3022 36.9042 38.009 36.9042 37.6473V37.3921C36.9042 37.0304 36.6109 36.7372 36.2492 36.7372Z" fill="white"/>
<path d="M23.8497 28.3846C26.277 28.3846 28.2446 26.4171 28.2446 23.9901C28.2446 21.563 26.277 19.5955 23.8497 19.5955C21.4225 19.5955 19.4549 21.563 19.4549 23.9901C19.4549 26.4171 21.4225 28.3846 23.8497 28.3846Z" fill="#17AED0"/>
<path d="M23.8497 26.0428C23.6938 26.0428 23.5662 25.9152 23.5662 25.7592V22.0196C23.5662 21.8637 23.6938 21.7361 23.8497 21.7361C24.0057 21.7361 24.1333 21.8637 24.1333 22.0196V25.7592C24.1333 25.9152 24.0057 26.0428 23.8497 26.0428Z" fill="white"/>
<path d="M21.7374 23.6867C21.8508 23.579 22.0323 23.5875 22.14 23.7009L23.6428 25.3169C23.7562 25.4389 23.9461 25.4389 24.0596 25.3169L25.5623 23.7009C25.6701 23.5846 25.8487 23.579 25.9649 23.6867C26.0784 23.7944 26.0869 23.9731 25.9791 24.0865L24.0596 26.1505C23.9461 26.2724 23.7562 26.2724 23.6428 26.1505L21.726 24.0865C21.6183 23.9731 21.6268 23.7916 21.7402 23.6867H21.7374Z" fill="white"/>
</svg>
