<svg width="48" height="48" viewBox="0 0 48 48" fill="none" xmlns="http://www.w3.org/2000/svg">
<path d="M11.6173 40.1643H19.8125C19.8311 40.1643 19.8458 40.1793 19.8458 40.1973V41.5772C19.8458 41.5952 19.8311 41.6102 19.8125 41.6102H11.6173C11.5987 41.6102 11.584 41.5952 11.584 41.5772V40.1973C11.584 40.1793 11.5987 40.1643 11.6173 40.1643Z" fill="#17AED0" stroke="#17AED0" stroke-width="0.3"/>
<path d="M31.2349 25.8037L30.2268 24.0602L31.2349 22.3143H33.2535L34.2616 24.0602L33.2535 25.8037" stroke="#17AED0" stroke-width="1.5" stroke-miterlimit="10"/>
<path d="M32.2453 13.2837V21.7123" stroke="#17AED0" stroke-width="1.5" stroke-miterlimit="10"/>
<path d="M31.8983 24.3708L28.7461 29.1799H35.745L32.5929 24.3708C32.4289 24.1203 32.0623 24.1203 31.8983 24.3708Z" fill="#D2D2D2"/>
<path d="M32.5374 26.7693H31.8139V27.4918H32.5374V26.7693Z" fill="white"/>
<path d="M22.9843 41.6209H41.5043C42.0445 41.6209 42.3677 41.0237 42.071 40.5734L39.2589 36.2845H25.2248L22.4127 40.5734C22.1185 41.0237 22.4417 41.6209 22.9795 41.6209H22.9843Z" fill="#D2D2D2"/>
<path d="M28.746 30.8539L25.2273 36.2217H39.2613L35.745 30.8539H28.746Z" fill="#93B1AF"/>
<path d="M28.4373 38.5694H27.7138V39.2918H28.4373V38.5694Z" fill="white"/>
<path d="M32.5373 38.5694H31.8138V39.2918H32.5373V38.5694Z" fill="white"/>
<path d="M30.6079 33.2714H29.8844V33.9939H30.6079V33.2714Z" fill="white"/>
<path d="M34.7079 33.2714H33.9844V33.9939H34.7079V33.2714Z" fill="white"/>
<path d="M36.6373 38.5694H35.9138V39.2918H36.6373V38.5694Z" fill="white"/>
<path d="M15.7705 41.7V6.3" stroke="#17AED0" stroke-width="2.1" stroke-miterlimit="10"/>
<path d="M5.39999 13.1656H35.2697" stroke="#17AED0" stroke-width="2.1" stroke-miterlimit="10"/>
<path d="M32.1705 13.2837L15.7267 8.22653L7.81172 13.205" stroke="#17AED0" stroke-width="2.1" stroke-miterlimit="10"/>
</svg>
