<svg width="48" height="48" viewBox="0 0 48 48" fill="none" xmlns="http://www.w3.org/2000/svg">
<path d="M9 15.6252H14.304V39.9H9V15.6252Z" fill="#93B1AF"/>
<path d="M27.72 25.2729H33.336V39.9H27.72V25.2729Z" fill="#93B1AF"/>
<path d="M21.48 10.957H26.784V25.4285V39.9H21.48V10.957Z" fill="#17AED0"/>
<path d="M34.272 6.60001H40.2V39.9H34.272V6.60001Z" fill="#D2D2D2"/>
<path d="M15.24 8.7785H20.544V39.9H15.24V8.7785Z" fill="#D2D2D2"/>
<path d="M21.5978 29.709C21.5978 33.1934 18.7731 36.0181 15.2887 36.0181C11.8043 36.0181 8.97969 33.1934 8.97969 29.709C8.97969 26.2246 11.8043 23.4 15.2887 23.4C18.7731 23.4 21.5978 26.2246 21.5978 29.709Z" fill="white"/>
<path d="M4.19613 39.323C3.74079 38.7708 3.81928 37.954 4.37146 37.4987L10.5158 32.4318C11.068 31.9765 11.8847 32.055 12.3401 32.6072C12.7954 33.1593 12.7169 33.9761 12.1647 34.4314L6.02042 39.4983C5.46824 39.9537 4.65148 39.8752 4.19613 39.323Z" fill="#316E68"/>
<path fill-rule="evenodd" clip-rule="evenodd" d="M15.2887 33.7749C17.5342 33.7749 19.3546 31.9545 19.3546 29.709C19.3546 27.4635 17.5342 25.6432 15.2887 25.6432C13.0432 25.6432 11.2229 27.4635 11.2229 29.709C11.2229 31.9545 13.0432 33.7749 15.2887 33.7749ZM15.2887 36.0181C18.7731 36.0181 21.5978 33.1934 21.5978 29.709C21.5978 26.2246 18.7731 23.4 15.2887 23.4C11.8043 23.4 8.97969 26.2246 8.97969 29.709C8.97969 33.1934 11.8043 36.0181 15.2887 36.0181Z" fill="#316E68"/>
<path d="M16.5366 27.1277L12.7074 30.9569C12.5976 31.0667 12.5974 31.2444 12.7069 31.3539L13.3635 32.0105C13.4729 32.12 13.6507 32.1197 13.7605 32.0099L17.5896 28.1808C17.6994 28.071 17.6997 27.8933 17.5902 27.7838L16.9336 27.1272C16.8241 27.0177 16.6464 27.0179 16.5366 27.1277Z" fill="#316E68"/>
<path d="M17.5855 30.9476L13.7676 27.1298C13.6581 27.0203 13.4804 27.0205 13.3706 27.1303L12.712 27.7889C12.6022 27.8987 12.602 28.0764 12.7115 28.1859L16.5293 32.0038C16.6388 32.1132 16.8165 32.113 16.9263 32.0032L17.5849 31.3446C17.6947 31.2348 17.695 31.0571 17.5855 30.9476Z" fill="#316E68"/>
</svg>
