<svg width="48" height="48" viewBox="0 0 48 48" fill="none" xmlns="http://www.w3.org/2000/svg">
<path d="M15.7818 11.9152H32.5724C33.0538 11.9152 33.4428 12.3009 33.4428 12.7782V35.1796C33.4428 35.951 32.4995 36.3343 31.9548 35.7847L24.7995 28.5771C24.4591 28.2348 23.8999 28.2348 23.5595 28.5771L16.4042 35.7847C15.8596 36.3343 14.9162 35.951 14.9162 35.1796V12.7758C14.9162 12.2985 15.3052 11.9128 15.7866 11.9128L15.7818 11.9152Z" fill="#D2D2D2"/>
<path d="M8.29812 33.1113L9.68396 33.861L8.29812 34.6107L7.54198 35.9847L6.78341 34.6107L5.39999 33.861L6.78341 33.1113L7.54198 31.7373L8.29812 33.1113Z" fill="#D2D2D2"/>
<path d="M31.9718 5.27161L33.3552 6.02371L31.9718 6.7734L31.2132 8.14743L30.4571 6.7734L29.0736 6.02371L30.4571 5.27161L31.2132 3.89999L31.9718 5.27161Z" fill="#17AED0"/>
<path d="M12.5917 8.94053L14.561 10.0084L12.5917 11.0787L11.5122 13.0337L10.4351 11.0787L8.46329 10.0084L10.4351 8.94053L11.5122 6.98555L12.5917 8.94053Z" fill="#316E68"/>
<path d="M25.716 37.0093L27.6878 38.0772L25.716 39.1474L24.6389 41.1L23.5594 39.1474L21.59 38.0772L23.5594 37.0093L24.6389 35.0543L25.716 37.0093Z" fill="#17AED0"/>
<path d="M41.1112 22.0516L42.3001 22.6952L41.1112 23.3413L40.4596 24.52L39.8104 23.3413L38.6215 22.6952L39.8104 22.0516L40.4596 20.8728L41.1112 22.0516Z" fill="#316E68"/>
</svg>
