<svg width="48" height="48" viewBox="0 0 48 48" fill="none" xmlns="http://www.w3.org/2000/svg">
<path d="M15.7818 11.9152H32.5724C33.0538 11.9152 33.4428 12.3009 33.4428 12.7782V35.1797C33.4428 35.951 32.4995 36.3343 31.9549 35.7847L24.7995 28.5771C24.4592 28.2348 23.9 28.2348 23.5596 28.5771L16.4042 35.7847C15.8596 36.3343 14.9163 35.951 14.9163 35.1797V12.7758C14.9163 12.2985 15.3053 11.9128 15.7867 11.9128L15.7818 11.9152Z" fill="#D2D2D2"/>
<path d="M8.29815 33.1113L9.68399 33.861L8.29815 34.6107L7.54201 35.9847L6.78344 34.6107L5.40002 33.861L6.78344 33.1113L7.54201 31.7373L8.29815 33.1113Z" fill="#D2D2D2"/>
<path d="M31.9717 5.27161L33.3551 6.02371L31.9717 6.7734L31.2132 8.14743L30.457 6.7734L29.0736 6.02371L30.457 5.27161L31.2132 3.89999L31.9717 5.27161Z" fill="#17AED0"/>
<path d="M12.5916 8.94051L14.561 10.0084L12.5916 11.0787L11.5121 13.0337L10.435 11.0787L8.46326 10.0084L10.435 8.94051L11.5121 6.98553L12.5916 8.94051Z" fill="#316E68"/>
<path d="M25.716 37.0093L27.6878 38.0772L25.716 39.1474L24.6389 41.1L23.5594 39.1474L21.59 38.0772L23.5594 37.0093L24.6389 35.0543L25.716 37.0093Z" fill="#17AED0"/>
<path d="M41.1111 22.0516L42.3 22.6953L41.1111 23.3413L40.4595 24.5201L39.8104 23.3413L38.6215 22.6953L39.8104 22.0516L40.4595 20.8729L41.1111 22.0516Z" fill="#316E68"/>
</svg>
