<svg width="48" height="48" viewBox="0 0 48 48" fill="none" xmlns="http://www.w3.org/2000/svg">
<path d="M22.7037 30.1078C15.6169 30.1078 9.44071 32.8471 6.2039 36.8999H39.2035C35.9667 32.8471 29.7904 30.1078 22.7037 30.1078Z" fill="#D2D2D2"/>
<path d="M18.3012 32.6534C18.3277 32.5085 18.344 32.3617 18.344 32.2087C18.344 30.8564 17.2501 29.7611 15.8995 29.7611C15.2008 29.7611 14.5714 30.0568 14.1273 30.526C13.7648 30.0303 13.2474 29.653 12.6444 29.4735C12.1413 27.9804 10.7357 26.9055 9.07556 26.9055C7.00188 26.9055 5.32135 28.5821 5.30913 30.6545C3.95859 30.9461 2.91156 32.0516 2.70175 33.4325H19.4602C19.1954 33.0368 18.7839 32.7513 18.3012 32.6534Z" fill="#316E68"/>
<path d="M41.9106 24.9393C41.0938 24.9393 40.3421 25.2289 39.7575 25.7123C39.2523 24.7761 38.2624 24.1418 37.1257 24.1418C36.7509 24.1418 36.3944 24.2131 36.0624 24.3396C35.5328 23.5013 34.5998 22.9445 33.5365 22.9445C31.9476 22.9445 30.6541 24.1846 30.5563 25.749C30.4871 25.7449 30.4178 25.7388 30.3465 25.7388C29.163 25.7388 28.1221 26.3487 27.5151 27.2686C27.179 27.0585 26.7838 26.9361 26.3581 26.9361C25.4292 26.9361 24.6368 27.5154 24.317 28.3333H45.2982C45.2982 26.4588 43.7806 24.9393 41.9086 24.9393H41.9106Z" fill="#17AED0"/>
<path fill-rule="evenodd" clip-rule="evenodd" d="M24.7842 12.7534C24.6464 12.8623 24.546 13.0198 24.5118 13.2061L21.2526 30.9514C21.1778 31.3588 21.4474 31.7497 21.8548 31.8246C22.2622 31.8994 22.6531 31.6298 22.7279 31.2224L25.001 18.8463C26.2232 19.4968 28.2913 20.2551 30.3318 19.4341C37.5489 16.5276 41.2115 18.1512 41.2115 18.1512C38.1223 13.6375 36.293 13.8323 33.4922 14.1305C32.7138 14.2134 31.8603 14.3043 30.8838 14.3043C26.3943 14.3043 25.0559 11.1 25.0559 11.1L24.7842 12.7534Z" fill="#93B1AF"/>
</svg>
