<svg width="48" height="48" viewBox="0 0 48 48" fill="none" xmlns="http://www.w3.org/2000/svg">
<path d="M6.3691 15.1795H36.3082C37.0084 15.1795 37.5773 15.7484 37.5773 16.4486V35.9843C37.5773 37.1539 36.6265 38.1047 35.4568 38.1047H7.22047C6.05083 38.1047 5.10001 37.1539 5.10001 35.9843V16.4486C5.10001 15.7484 5.66891 15.1795 6.3691 15.1795Z" fill="#D2D2D2"/>
<path d="M25.4193 18.7759H7.29988V21.1351H25.4193V18.7759Z" fill="white"/>
<path d="M34.657 23.1562H7.29988V25.5153H34.657V23.1562Z" fill="white"/>
<path d="M5.10001 35.4413H37.5773V36.9311C37.5773 37.5776 37.0522 38.1028 36.4057 38.1028H6.27163C5.62515 38.1048 5.10001 37.5796 5.10001 36.9331V35.4432V35.4413Z" fill="#17AED0"/>
<path d="M8.95922 33.8062C9.84798 33.8062 10.5685 33.0857 10.5685 32.1969C10.5685 31.3082 9.84798 30.5877 8.95922 30.5877C8.07046 30.5877 7.34998 31.3082 7.34998 32.1969C7.34998 33.0857 8.07046 33.8062 8.95922 33.8062Z" fill="white"/>
<path d="M13.7847 33.8062C14.6735 33.8062 15.394 33.0857 15.394 32.1969C15.394 31.3082 14.6735 30.5877 13.7847 30.5877C12.8959 30.5877 12.1755 31.3082 12.1755 32.1969C12.1755 33.0857 12.8959 33.8062 13.7847 33.8062Z" fill="white"/>
<path d="M33.7423 33.8062C34.631 33.8062 35.3515 33.0857 35.3515 32.1969C35.3515 31.3082 34.631 30.5877 33.7423 30.5877C32.8535 30.5877 32.133 31.3082 32.133 32.1969C32.133 33.0857 32.8535 33.8062 33.7423 33.8062Z" fill="white"/>
<path d="M34.6809 9.9V12.8589" stroke="#D2D2D2" stroke-width="0.9" stroke-miterlimit="10"/>
<path d="M37.9686 14.1739L40.5987 11.5438" stroke="#D2D2D2" stroke-width="0.9" stroke-miterlimit="10"/>
<path d="M39.2836 16.4753H42.9" stroke="#D2D2D2" stroke-width="0.9" stroke-miterlimit="10"/>
</svg>
