<svg width="49" height="48" viewBox="0 0 49 48" fill="none" xmlns="http://www.w3.org/2000/svg">
<path d="M17.1721 16.0286C16.4152 16.0286 15.7218 16.2971 15.1793 16.7462C14.7109 15.8772 13.7952 15.2872 12.7419 15.2872C12.3953 15.2872 12.0645 15.3536 11.7575 15.4706C11.2679 14.6919 10.4052 14.1737 9.41803 14.1737C7.94926 14.1737 6.74779 15.3244 6.65781 16.7781C6.59429 16.7754 6.53078 16.7674 6.46462 16.7674C5.369 16.7674 3.89758 17.663 3.89758 19.1778C3.74144 19.0795 20.3054 19.1778 20.3054 19.1778C20.3054 17.4371 18.9002 16.026 17.1668 16.026L17.1721 16.0286Z" fill="#17AED0"/>
<path d="M30.8646 24.7109C24.2538 23.988 19.4797 18.0192 20.1995 11.3806C20.3768 9.75952 20.8664 8.24737 21.5994 6.89999C17.0529 8.74699 13.639 12.9805 13.07 18.2185C12.247 25.8058 17.7039 32.6277 25.2595 33.4542C32.815 34.2807 39.4152 28.9497 40.3891 21.5245C37.9173 23.8419 34.4928 25.1069 30.8672 24.7109H30.8646Z" fill="#D2D2D2"/>
<path d="M10.4023 41.1C9.85714 41.1 9.51311 40.5154 9.77511 40.0343L17.7938 25.3354C17.9182 25.1042 18.159 24.9607 18.421 24.9607C18.9662 24.9607 19.3102 25.5454 19.0482 26.0264L11.0295 40.7253C10.9051 40.9565 10.6643 41.1 10.4023 41.1V41.1Z" fill="#93B1AF"/>
<path d="M15.9148 41.1C15.3697 41.1 15.0256 40.5154 15.2876 40.0343L23.3063 25.3354C23.4307 25.1042 23.6715 24.9607 23.9335 24.9607C24.4787 24.9607 24.8227 25.5454 24.5607 26.0264L16.542 40.7253C16.4176 40.9565 16.1768 41.1 15.9148 41.1V41.1Z" fill="#93B1AF"/>
<path d="M17.3227 27.3552H22.6315C23.1766 27.3552 23.5207 27.9398 23.2587 28.4208L23.0655 28.7743C22.9411 29.0055 22.7003 29.149 22.4383 29.149H17.1295C16.5844 29.149 16.2403 28.5643 16.5023 28.0833L16.6955 27.7299C16.8199 27.4987 17.0607 27.3552 17.3227 27.3552V27.3552Z" fill="#93B1AF"/>
<path d="M14.7133 32.1361H20.0221C20.5672 32.1361 20.9113 32.7208 20.6493 33.2018L20.4561 33.5552C20.3317 33.7864 20.0909 33.93 19.8289 33.93H14.5202C13.975 33.93 13.631 33.3453 13.8929 32.8643L14.0861 32.5108C14.2105 32.2796 14.4513 32.1361 14.7133 32.1361V32.1361Z" fill="#93B1AF"/>
<path d="M12.104 36.917H17.4127C17.9579 36.917 18.3019 37.5017 18.0399 37.9827L17.8467 38.3362C17.7223 38.5674 17.4815 38.7109 17.2195 38.7109H11.9108C11.3656 38.7109 11.0216 38.1262 11.2836 37.6452L11.4768 37.2917C11.6011 37.0605 11.842 36.917 12.104 36.917Z" fill="#93B1AF"/>
<g filter="url(#filter0_d_219_173)">
<path d="M24.4286 35.7052C24.3942 35.5165 24.373 35.3251 24.373 35.1258C24.373 33.3639 25.7941 31.9368 27.5487 31.9368C28.4564 31.9368 29.2742 32.3221 29.8511 32.9333C30.3222 32.2876 30.9943 31.7959 31.7777 31.562C32.4314 29.6167 34.2574 28.2162 36.4142 28.2162C39.1083 28.2162 41.2916 30.4007 41.3075 33.1008C43.0621 33.4808 44.4223 34.9212 44.6949 36.7203H22.9254C23.2694 36.2048 23.804 35.8327 24.4312 35.7052H24.4286Z" fill="#316E68"/>
</g>
<defs>
<filter id="filter0_d_219_173" x="20.5254" y="25.2162" width="27.7695" height="14.5042" filterUnits="userSpaceOnUse" color-interpolation-filters="sRGB">
<feFlood flood-opacity="0" result="BackgroundImageFix"/>
<feColorMatrix in="SourceAlpha" type="matrix" values="0 0 0 0 0 0 0 0 0 0 0 0 0 0 0 0 0 0 127 0" result="hardAlpha"/>
<feOffset dx="0.6"/>
<feGaussianBlur stdDeviation="1.5"/>
<feColorMatrix type="matrix" values="0 0 0 0 0 0 0 0 0 0 0 0 0 0 0 0 0 0 0.09 0"/>
<feBlend mode="normal" in2="BackgroundImageFix" result="effect1_dropShadow_219_173"/>
<feBlend mode="normal" in="SourceGraphic" in2="effect1_dropShadow_219_173" result="shape"/>
</filter>
</defs>
</svg>
