<svg width="48" height="49" viewBox="0 0 48 49" fill="none" xmlns="http://www.w3.org/2000/svg">
<g clip-path="url(#clip0_245_3076)">
<path d="M39.4335 7.13H0.92511C0.414978 7.13 0 7.47444 0 7.89786V39.8606C0 40.284 0.414978 40.6284 0.92511 40.6284H19.2555V47.9319C19.2555 48.2434 19.4828 48.5242 19.8291 48.6427C19.9427 48.6822 20.0617 48.6997 20.1806 48.6997C20.4238 48.6997 20.6617 48.6208 20.8388 48.4716L30.1454 40.6284H39.4335C39.9436 40.6284 40.3586 40.284 40.3586 39.8606V7.89786C40.3586 7.47444 39.9436 7.13 39.4335 7.13V7.13Z" fill="#BFBFBF"/>
<path d="M13.8106 13.5405V18.5952H7.7207V13.5405H13.8106ZM15.6608 12.0048H5.87048V20.1309H15.6608V12.0048Z" fill="#172D2D"/>
<path d="M32.6379 13.5405V18.5952H26.548V13.5405H32.6379M34.4881 12.0048H24.6978V20.1309H34.4881V12.0048Z" fill="#172D2D"/>
<path d="M13.8106 29.4199V34.4746H7.7207V29.4199H13.8106ZM15.6608 27.8842H5.87048V36.0103H15.6608V27.8842Z" fill="#172D2D"/>
<path d="M32.6379 29.4199V34.4746H26.548V29.4199H32.6379M34.4881 27.8842H24.6978V36.0103H34.4881V27.8842Z" fill="#172D2D"/>
<path fill-rule="evenodd" clip-rule="evenodd" d="M19.2555 23.2396V12.0048H21.1057V24.7754H5.87048V23.2396H19.2555Z" fill="#172D2D"/>
<path fill-rule="evenodd" clip-rule="evenodd" d="M24.6978 23.2396H34.4881V24.7753H24.6978V23.2396Z" fill="#172D2D"/>
<path fill-rule="evenodd" clip-rule="evenodd" d="M19.2555 36.0102V27.2062H21.1057V36.0102H19.2555Z" fill="#172D2D"/>
<path d="M12.2987 14.7954H9.22997V17.3425H12.2987V14.7954Z" fill="#172D2D"/>
<path d="M12.2987 30.6725H9.22997V33.2196H12.2987V30.6725Z" fill="#172D2D"/>
<path d="M31.1286 14.7954H28.0599V17.3425H31.1286V14.7954Z" fill="#172D2D"/>
<path d="M31.1286 30.6725H28.0599V33.2196H31.1286V30.6725Z" fill="#172D2D"/>
<path d="M39.3304 13.9968C43.3886 13.9968 46.6784 11.2662 46.6784 7.89783C46.6784 4.52944 43.3886 1.79883 39.3304 1.79883C35.2722 1.79883 31.9824 4.52944 31.9824 7.89783C31.9824 11.2662 35.2722 13.9968 39.3304 13.9968Z" fill="#004C45"/>
<path d="M43.0627 7.89795H35.5981" stroke="white" stroke-width="2.1" stroke-miterlimit="10"/>
<path d="M39.3304 10.9957V4.80005" stroke="white" stroke-width="2.1" stroke-miterlimit="10"/>
</g>
<defs>
<clipPath id="clip0_245_3076">
<rect width="48" height="48" fill="white" transform="translate(0 0.701904)"/>
</clipPath>
</defs>
</svg>
