<svg width="48" height="48" viewBox="0 0 48 48" fill="none" xmlns="http://www.w3.org/2000/svg">
<path d="M9 15.6252H14.304V39.9H9V15.6252Z" fill="#93B1AF"/>
<path d="M27.72 25.2729H33.336V39.9H27.72V25.2729Z" fill="#93B1AF"/>
<path d="M21.48 10.957H26.784V25.4285V39.9H21.48V10.957Z" fill="#17AED0"/>
<path d="M34.272 6.60001H40.2V39.9H34.272V6.60001Z" fill="#D2D2D2"/>
<path d="M15.24 8.7785H20.544V39.9H15.24V8.7785Z" fill="#D2D2D2"/>
<path d="M21.5978 29.709C21.5978 33.1934 18.7732 36.0181 15.2888 36.0181C11.8044 36.0181 8.97974 33.1934 8.97974 29.709C8.97974 26.2246 11.8044 23.4 15.2888 23.4C18.7732 23.4 21.5978 26.2246 21.5978 29.709Z" fill="white"/>
<path d="M4.19616 39.323C3.74082 38.7708 3.81931 37.954 4.37149 37.4987L10.5158 32.4318C11.068 31.9765 11.8848 32.055 12.3401 32.6072C12.7955 33.1593 12.717 33.9761 12.1648 34.4314L6.02045 39.4983C5.46827 39.9537 4.65151 39.8752 4.19616 39.323Z" fill="#316E68"/>
<path fill-rule="evenodd" clip-rule="evenodd" d="M15.2888 33.7749C17.5343 33.7749 19.3546 31.9545 19.3546 29.709C19.3546 27.4635 17.5343 25.6432 15.2888 25.6432C13.0433 25.6432 11.2229 27.4635 11.2229 29.709C11.2229 31.9545 13.0433 33.7749 15.2888 33.7749ZM15.2888 36.0181C18.7732 36.0181 21.5978 33.1934 21.5978 29.709C21.5978 26.2246 18.7732 23.4 15.2888 23.4C11.8044 23.4 8.97972 26.2246 8.97972 29.709C8.97972 33.1934 11.8044 36.0181 15.2888 36.0181Z" fill="#316E68"/>
<path d="M16.5365 27.1278L12.7074 30.9569C12.5976 31.0667 12.5973 31.2445 12.7068 31.3539L13.3634 32.0105C13.4729 32.12 13.6507 32.1198 13.7605 32.01L17.5896 28.1808C17.6994 28.071 17.6997 27.8933 17.5902 27.7838L16.9336 27.1272C16.8241 27.0177 16.6463 27.018 16.5365 27.1278Z" fill="#316E68"/>
<path d="M17.5854 30.9476L13.7676 27.1298C13.6581 27.0203 13.4803 27.0206 13.3705 27.1304L12.712 27.7889C12.6022 27.8987 12.6019 28.0765 12.7114 28.1859L16.5293 32.0038C16.6387 32.1133 16.8165 32.113 16.9263 32.0032L17.5848 31.3447C17.6946 31.2349 17.6949 31.0571 17.5854 30.9476Z" fill="#316E68"/>
</svg>
