<svg width="48" height="48" viewBox="0 0 48 48" fill="none" xmlns="http://www.w3.org/2000/svg">
<path d="M35.2886 6.60001H37.2015L36.929 12.8122H35.561L35.2886 6.60001Z" fill="#17AED0"/>
<path d="M36.2547 15.9182C36.7882 15.9182 37.2208 15.4837 37.2208 14.9476C37.2208 14.4115 36.7882 13.9769 36.2547 13.9769C35.7211 13.9769 35.2886 14.4115 35.2886 14.9476C35.2886 15.4837 35.7211 15.9182 36.2547 15.9182Z" fill="#17AED0"/>
<path d="M15.9171 37.2704C16.3594 37.5258 16.9245 37.3753 17.1791 36.9342C17.4338 36.4931 17.2816 35.9285 16.8392 35.6731C16.3969 35.4177 15.8318 35.5682 15.5772 36.0093C15.3225 36.4504 15.4747 37.015 15.9171 37.2704Z" fill="#316E68"/>
<path d="M22.2196 37.8186L12.1304 31.9936C13.7389 29.2075 17.3014 28.2529 20.0875 29.8615C22.8736 31.47 23.8282 35.0325 22.2196 37.8186Z" fill="#93B1AF"/>
<path d="M22.4207 15.8344L16.1796 26.6444C16.1796 26.6444 19.9834 20.056 22.4207 15.8344Z" fill="#D2D2D2"/>
<path d="M29.2411 14.0069C26.8531 12.6282 23.7995 13.4464 22.4207 15.8344L16.1796 26.6444L24.8276 31.6372L31.0687 20.8273C32.4474 18.4393 31.6292 15.3857 29.2411 14.0069Z" fill="#D2D2D2"/>
<path d="M14.0869 11.2631L11.5905 15.5871L5.1045 11.8424L7.60095 7.51843L14.0869 11.2631Z" fill="#316E68"/>
<path d="M11.3824 15.9474L8.88598 20.2714L2.40002 16.5267L4.89647 12.2027L11.3824 15.9474Z" fill="#316E68"/>
<path d="M20.9332 15.2158L18.4367 19.5398L11.9508 15.7951L14.4472 11.4711L20.9332 15.2158Z" fill="#316E68"/>
<path d="M18.2287 19.9001L15.7322 24.2241L9.24629 20.4794L11.7427 16.1554L18.2287 19.9001Z" fill="#316E68"/>
<path d="M14.0869 11.2631L11.5905 15.5871L5.1045 11.8424L7.60095 7.51843L14.0869 11.2631Z" fill="#316E68"/>
<path d="M11.3824 15.9474L8.88598 20.2714L2.40002 16.5267L4.89647 12.2027L11.3824 15.9474Z" fill="#316E68"/>
<path d="M20.9332 15.2158L18.4367 19.5398L11.9508 15.7951L14.4472 11.4711L20.9332 15.2158Z" fill="#316E68"/>
<path d="M18.2287 19.9001L15.7322 24.2241L9.24629 20.4794L11.7427 16.1554L18.2287 19.9001Z" fill="#316E68"/>
<path d="M39.0537 25.4375L36.5573 29.7615L30.0713 26.0168L32.5678 21.6928L39.0537 25.4375Z" fill="#316E68"/>
<path d="M36.3492 30.1218L33.8528 34.4458L27.3668 30.7011L29.8633 26.3771L36.3492 30.1218Z" fill="#316E68"/>
<path d="M45.9 29.3902L43.4035 33.7142L36.9176 29.9695L39.414 25.6455L45.9 29.3902Z" fill="#316E68"/>
<path d="M43.1955 34.0745L40.699 38.3985L34.2131 34.6538L36.7095 30.3298L43.1955 34.0745Z" fill="#316E68"/>
<path d="M39.0537 25.4375L36.5573 29.7615L30.0713 26.0168L32.5678 21.6928L39.0537 25.4375Z" fill="#316E68"/>
<path d="M36.3492 30.1218L33.8528 34.4458L27.3668 30.7011L29.8633 26.3771L36.3492 30.1218Z" fill="#316E68"/>
<path d="M45.9 29.3902L43.4035 33.7142L36.9176 29.9695L39.414 25.6455L45.9 29.3902Z" fill="#316E68"/>
<path d="M43.1955 34.0745L40.699 38.3985L34.2131 34.6538L36.7095 30.3298L43.1955 34.0745Z" fill="#316E68"/>
<path d="M5.44429 29.0557L6.90002 29.85L5.44429 30.6443L4.65002 32.1L3.8532 30.6443L2.40002 29.85L3.8532 29.0557L4.65002 27.6L5.44429 29.0557Z" fill="#D2D2D2"/>
<path d="M21.5311 8.87194L22.5 9.34867L21.5311 9.82647L21 10.6992L20.4701 9.82647L19.5 9.34867L20.4701 8.87194L21 7.99921L21.5311 8.87194Z" fill="#316E68"/>
<path d="M30.3448 38.7573L31.8 39.4992L30.3448 40.2428L29.55 41.5992L28.7533 40.2428L27.3 39.4992L28.7533 38.7573L29.55 37.3992L30.3448 38.7573Z" fill="#93B1AF"/>
</svg>
