<svg width="48" height="48" viewBox="0 0 48 48" fill="none" xmlns="http://www.w3.org/2000/svg">
<path d="M28.9422 11.411L20.0342 18.8157L25.8166 40.3282H41.9986L28.9422 11.411Z" fill="#D2D2D2"/>
<ellipse cx="33.9398" cy="40.2492" rx="8.05891" ry="1.65919" fill="#D2D2D2"/>
<path d="M32.3496 31.3925C33.1112 31.3925 33.7198 31.5918 34.1754 31.9905C34.6381 32.3891 34.8694 32.9514 34.8694 33.6774C34.8694 34.3466 34.6487 34.8697 34.2074 35.247C33.7732 35.6171 33.1966 35.8058 32.4777 35.8129L32.4243 36.6137H30.8227L30.7694 34.6277H31.41C31.9581 34.6277 32.3745 34.5601 32.6592 34.4248C32.9511 34.2896 33.097 34.044 33.097 33.6881C33.097 33.439 33.0294 33.2432 32.8941 33.1009C32.7589 32.9585 32.5702 32.8873 32.3282 32.8873C32.072 32.8873 31.8727 32.9621 31.7303 33.1116C31.5879 33.2539 31.5168 33.4497 31.5168 33.6988H29.7977C29.7835 33.2646 29.8725 32.8731 30.0647 32.5243C30.264 32.1755 30.5558 31.9015 30.9402 31.7022C31.3317 31.4957 31.8015 31.3925 32.3496 31.3925ZM31.6449 39.3897C31.3246 39.3897 31.0612 39.2972 30.8548 39.1121C30.6555 38.9199 30.5558 38.685 30.5558 38.4074C30.5558 38.1227 30.6555 37.8843 30.8548 37.6921C31.0612 37.4999 31.3246 37.4038 31.6449 37.4038C31.9581 37.4038 32.2143 37.4999 32.4136 37.6921C32.6201 37.8843 32.7233 38.1227 32.7233 38.4074C32.7233 38.685 32.6201 38.9199 32.4136 39.1121C32.2143 39.2972 31.9581 39.3897 31.6449 39.3897Z" fill="#17AED0"/>
<path d="M7.67918 20.7153H9.66209V41.9171H7.67918V20.7153Z" fill="#316E68"/>
<path d="M16.4123 10.5532C16.7692 10.138 17.3952 10.0907 17.8104 10.4476C18.2257 10.8045 18.273 11.4305 17.916 11.8457L9.37163 21.7867C9.01471 22.202 8.38874 22.2493 7.97349 21.8924C7.55823 21.5354 7.51094 20.9095 7.86786 20.4942L16.4123 10.5532Z" fill="#316E68"/>
<path d="M12.789 39.7817C13.0838 39.7817 13.3228 40.0207 13.3228 40.3155V41.3832C13.3228 41.6781 13.0838 41.9171 12.789 41.9171H6.5352C6.24036 41.9171 6.00134 41.6781 6.00134 41.3832L6.00134 40.3155C6.00134 40.0207 6.24036 39.7817 6.5352 39.7817H12.789Z" fill="#316E68"/>
<path d="M10.4247 21.4017C10.4247 22.2862 9.70769 23.0032 8.82317 23.0032C7.93864 23.0032 7.22159 22.2862 7.22159 21.4017C7.22159 20.5171 7.93864 19.8001 8.82317 19.8001C9.70769 19.8001 10.4247 20.5171 10.4247 21.4017Z" fill="#316E68"/>
<path d="M30.5615 10.2042C29.8636 9.42124 29.0184 8.78338 28.074 8.32706C27.1296 7.87074 26.1046 7.60489 25.0575 7.5447C24.0104 7.48451 22.9617 7.63115 21.9713 7.97625C20.9809 8.32135 20.0681 8.85816 19.2851 9.55601C18.5021 10.2539 17.8643 11.0991 17.408 12.0435C16.9516 12.9878 16.6858 14.0128 16.6256 15.0599C16.5654 16.107 16.712 17.1558 17.0572 18.1462C17.4023 19.1366 17.9391 20.0494 18.6369 20.8324L30.5615 10.2042Z" fill="#316E68"/>
<path d="M16.6242 7.54736C16.3172 7.09393 16.436 6.47751 16.8894 6.17055C17.3428 5.86358 17.9592 5.98231 18.2662 6.43574L19.3778 8.07775C19.6848 8.53118 19.5661 9.1476 19.1126 9.45457C18.6592 9.76153 18.0428 9.6428 17.7358 9.18937L16.6242 7.54736Z" fill="#316E68"/>
<path d="M16.6242 10.1048C16.3172 9.65136 16.436 9.03494 16.8894 8.72797L19.09 7.23819C19.5434 6.93122 20.1598 7.04996 20.4668 7.50338L21.5784 9.14539C21.8854 9.59882 21.7667 10.2152 21.3132 10.5222L19.1126 12.012C18.6592 12.319 18.0428 12.2002 17.7358 11.7468L16.6242 10.1048Z" fill="#316E68"/>
</svg>
