<svg width="48" height="48" viewBox="0 0 48 48" fill="none" xmlns="http://www.w3.org/2000/svg">
<path d="M36.1045 25.9714H13.6386C13.1463 25.9714 12.7453 26.3737 12.7453 26.8676V29.5467C12.7453 31.2983 14.1596 32.7173 15.9053 32.7173H18.0736C19.8722 32.7173 21.3057 34.2183 21.2313 36.0205L21.0776 39.7332C20.9887 41.8726 22.6288 43.7374 24.7635 43.7976C26.975 43.8602 28.7615 42.0292 28.6679 39.8271L28.5094 36.0205C28.4349 34.2183 29.8709 32.7173 31.667 32.7173H33.8353C35.581 32.7173 36.9953 31.2983 36.9953 29.5467V26.8676C36.9953 26.3737 36.5943 25.9714 36.1021 25.9714H36.1045Z" fill="#316E68"/>
<path d="M32.5482 19.6566C31.751 20.5023 31.5156 22.0394 30.3751 22.2442C29.573 22.3888 28.8407 21.6973 28.5117 20.948C28.1827 20.1987 28.0987 19.3579 27.7409 18.6207C27.3831 17.8858 26.5835 17.245 25.8031 17.4835C25.1596 17.6786 24.8186 18.3629 24.5449 18.9796C24.1871 19.7916 23.8077 20.6252 23.1474 21.213C22.4846 21.8009 21.4569 22.0707 20.7053 21.6082C19.8937 21.1094 19.5839 19.9096 18.6619 19.6711C17.6894 19.4181 16.8922 20.3963 16.0925 21.0058C15.3073 21.6033 14.294 21.878 13.3119 21.7985L13.773 25.9738H35.8258L36.6495 19.2278C35.2015 18.811 33.5495 18.599 32.5506 19.6591L32.5482 19.6566Z" fill="#D2D2D2"/>
<path d="M22.0746 5.2709L23.4409 6.0226L22.0746 6.77188L21.3254 8.14517L20.5786 6.77188L19.2123 6.0226L20.5786 5.2709L21.3254 3.90002L22.0746 5.2709Z" fill="#D2D2D2"/>
<path d="M9.17729 16.4065L11.1223 17.4738L9.17729 18.5435L8.11115 20.4974L7.0474 18.5435L5.10001 17.4738L7.0474 16.4065L8.11115 14.4526L9.17729 16.4065Z" fill="#D2D2D2"/>
<path d="M41.4261 19.3916L42.6003 20.0349L41.4261 20.6806L40.7825 21.8587L40.1414 20.6806L38.9672 20.0349L40.1414 19.3916L40.7825 18.2135L41.4261 19.3916Z" fill="#D2D2D2"/>
<path d="M36.2057 12.2385H13.5381C12.8537 12.2385 12.3206 12.8047 12.3927 13.4552L13.3123 21.7961C14.2944 21.8756 15.3078 21.6033 16.093 21.0034C16.895 20.3939 17.6898 19.4157 18.6623 19.6687C19.5844 19.9096 19.8941 21.107 20.7057 21.6058C21.4597 22.0683 22.4874 21.7985 23.1478 21.2106C23.8105 20.6228 24.1875 19.7868 24.5453 18.9772C24.8166 18.3605 25.16 17.6762 25.8035 17.4811C26.5839 17.245 27.3835 17.8834 27.7413 18.6183C28.0991 19.3531 28.1832 20.1963 28.5121 20.9456C28.8411 21.6949 29.5735 22.3864 30.3755 22.2418C31.5161 22.037 31.7514 20.4999 32.5486 19.6542C33.5475 18.5942 35.1995 18.8062 36.6475 19.223L37.351 13.4648C37.4303 12.8095 36.8948 12.2361 36.2057 12.2361V12.2385Z" fill="#17AED0"/>
</svg>
