<svg width="48" height="48" viewBox="0 0 48 48" fill="none" xmlns="http://www.w3.org/2000/svg">
<path d="M15.8969 37.8C16.8851 37.8 17.6862 37.0017 17.6862 36.0169C17.6862 35.032 16.8851 34.2337 15.8969 34.2337C14.9087 34.2337 14.1076 35.032 14.1076 36.0169C14.1076 37.0017 14.9087 37.8 15.8969 37.8Z" fill="#D2D2D2"/>
<path d="M4.36773 22.4705C5.12311 22.4705 5.73547 21.8602 5.73547 21.1074C5.73547 20.3546 5.12311 19.7444 4.36773 19.7444C3.61235 19.7444 3 20.3546 3 21.1074C3 21.8602 3.61235 22.4705 4.36773 22.4705Z" fill="#D2D2D2"/>
<path d="M39.9162 35.6107C40.9044 35.6107 41.7055 34.8124 41.7055 33.8276C41.7055 32.8428 40.9044 32.0444 39.9162 32.0444C38.928 32.0444 38.127 32.8428 38.127 33.8276C38.127 34.8124 38.928 35.6107 39.9162 35.6107Z" fill="#D2D2D2"/>
<path d="M25.6313 30.739L27.1255 33.2923H24.1371L25.6313 30.739Z" fill="#93B1AF"/>
<path d="M43.0204 16.0972L44.4506 18.5432H41.5887L43.0204 16.0972Z" fill="#93B1AF"/>
<path d="M13.6904 10.2L15.8513 13.8924H11.5295L13.6904 10.2Z" fill="#93B1AF"/>
<path d="M15.8669 31.2866C19.8464 31.2866 23.0725 28.0717 23.0725 24.1058C23.0725 20.1399 19.8464 16.9249 15.8669 16.9249C11.8874 16.9249 8.66133 20.1399 8.66133 24.1058C8.66133 28.0717 11.8874 31.2866 15.8669 31.2866Z" fill="#D2D2D2"/>
<path d="M15.8669 23.9689C16.9284 23.9689 17.7889 23.1113 17.7889 22.0535C17.7889 20.9956 16.9284 20.1381 15.8669 20.1381C14.8054 20.1381 13.9449 20.9956 13.9449 22.0535C13.9449 23.1113 14.8054 23.9689 15.8669 23.9689Z" fill="#17AED0"/>
<path d="M15.8669 24.3781C17.6109 24.3781 19.0239 25.7863 19.0239 27.5243H12.7114C12.7114 25.7863 14.1245 24.3781 15.8685 24.3781H15.8669Z" fill="#17AED0"/>
<path d="M33.8476 31.2866C37.8271 31.2866 41.0532 28.0717 41.0532 24.1058C41.0532 20.1399 37.8271 16.9249 33.8476 16.9249C29.868 16.9249 26.642 20.1399 26.642 24.1058C26.642 28.0717 29.868 31.2866 33.8476 31.2866Z" fill="#D2D2D2"/>
<path d="M30.8279 19.7802V28.4314H32.8093V26.1752H34.8859V28.4314H36.8672V19.7802H30.8279ZM33.2808 24.8589H31.771V23.3542H33.2808V24.8589ZM33.2808 22.5078H31.771V21.0032H33.2808V22.5078ZM35.9226 24.8589H34.4128V23.3542H35.9226V24.8589ZM35.9226 22.5078H34.4128V21.0032H35.9226V22.5078Z" fill="#316E68"/>
<path d="M8.74418 30.7374H6.43184V33.0418H8.74418V30.7374Z" fill="#D2D2D2"/>
<path d="M45.0002 24.5617H43.9025V25.6556H45.0002V24.5617Z" fill="#D2D2D2"/>
<path d="M27.1567 14.4385H24.1371V17.4477H27.1567V14.4385Z" fill="#D2D2D2"/>
</svg>
