<svg width="48" height="48" viewBox="0 0 48 48" fill="none" xmlns="http://www.w3.org/2000/svg">
<path d="M6.2143 34.5902C5.26752 31.7637 12.463 26.7804 22.2844 23.4569C32.1077 20.1353 40.8374 19.7315 41.7842 22.5581" stroke="#17AED0" stroke-width="0.9" stroke-miterlimit="10"/>
<path d="M33.3981 5.10001H35.311L35.0385 11.3122H33.6705L33.3981 5.10001Z" fill="#17AED0"/>
<path d="M34.3642 14.4182C34.8977 14.4182 35.3303 13.9837 35.3303 13.4476C35.3303 12.9115 34.8977 12.4769 34.3642 12.4769C33.8306 12.4769 33.3981 12.9115 33.3981 13.4476C33.3981 13.9837 33.8306 14.4182 34.3642 14.4182Z" fill="#17AED0"/>
<path d="M24.8232 42.5961C32.5598 42.5961 38.8316 36.2948 38.8316 28.5217C38.8316 20.7486 32.5598 14.4473 24.8232 14.4473C17.0865 14.4473 10.8147 20.7486 10.8147 28.5217C10.8147 36.2948 17.0865 42.5961 24.8232 42.5961Z" fill="#D2D2D2"/>
<path d="M32.1421 28.2014C33.7962 28.2014 35.137 26.8542 35.137 25.1924C35.137 23.5306 33.7962 22.1834 32.1421 22.1834C30.4881 22.1834 29.1472 23.5306 29.1472 25.1924C29.1472 26.8542 30.4881 28.2014 32.1421 28.2014Z" fill="#93B1AF"/>
<path d="M27.0046 38.7135C27.7548 38.7135 28.3629 38.1025 28.3629 37.3488C28.3629 36.5951 27.7548 35.9841 27.0046 35.9841C26.2544 35.9841 25.6462 36.5951 25.6462 37.3488C25.6462 38.1025 26.2544 38.7135 27.0046 38.7135Z" fill="#93B1AF"/>
<path d="M16.5709 24.9478C17.224 24.9478 17.7534 24.4159 17.7534 23.7597C17.7534 23.1035 17.224 22.5716 16.5709 22.5716C15.9179 22.5716 15.3884 23.1035 15.3884 23.7597C15.3884 24.4159 15.9179 24.9478 16.5709 24.9478Z" fill="#93B1AF"/>
<path d="M24.916 18.3804C26.1043 17.4272 26.6144 15.9421 26.3864 14.5367C24.8928 14.3678 23.3471 14.4357 21.7974 14.7813C20.5917 15.0492 19.4595 15.4665 18.4103 16.0082C18.5339 16.6216 18.7967 17.2156 19.2121 17.7398C20.6111 19.4986 23.1635 19.7879 24.9141 18.3824L24.916 18.3804Z" fill="#93B1AF"/>
<path d="M16.5878 33.8312C16.5878 32.0083 15.1174 30.531 13.303 30.531C12.4587 30.531 11.6916 30.8532 11.11 31.3793C11.1235 31.4414 11.1312 31.5016 11.1448 31.5618C11.6027 33.6448 12.5012 35.5162 13.7165 37.1023C15.3338 36.8965 16.5858 35.5123 16.5858 33.8312H16.5878Z" fill="#93B1AF"/>
<path d="M41.7861 22.56C42.7328 25.3865 35.5373 30.3698 25.716 33.6933C15.8926 37.0149 7.16296 37.4187 6.21619 34.5921" stroke="#17AED0" stroke-width="0.9" stroke-miterlimit="10"/>
</svg>
