<svg width="48" height="49" viewBox="0 0 48 49" fill="none" xmlns="http://www.w3.org/2000/svg">
<g clip-path="url(#clip0_219_407)">
<path d="M23.466 39.8339C31.7867 39.8339 38.532 33.0886 38.532 24.7679C38.532 16.4472 31.7867 9.7019 23.466 9.7019C15.1453 9.7019 8.39999 16.4472 8.39999 24.7679C8.39999 33.0886 15.1453 39.8339 23.466 39.8339Z" fill="#D2D2D2"/>
<path d="M28.938 35.7449C29.043 34.6289 29.028 33.4799 29.4 32.4239C29.637 31.7489 30.033 31.0469 29.823 30.3629C29.688 29.9249 29.328 29.6009 28.983 29.2979C27.522 28.0199 25.986 26.7029 24.105 26.2259C23.757 26.1389 23.394 26.0759 23.088 25.8899C22.8 25.7159 22.584 25.4429 22.389 25.1699C20.64 22.7519 19.719 19.7489 19.803 16.7639C19.824 16.0169 19.911 15.2609 20.169 14.5589C20.571 13.4729 22.452 11.8469 22.761 9.77087C14.793 10.1429 8.451 16.7129 8.451 24.7679C8.451 25.6829 8.538 26.5769 8.694 27.4439C9.036 27.8219 9.615 27.8879 10.122 27.8189C11.61 27.6149 13.044 26.5349 14.475 26.9849C14.991 27.1469 15.438 27.4979 15.963 27.6239C17.073 27.8879 18.378 27.1229 19.311 27.7769C20.598 28.6739 19.464 30.8189 20.145 32.2349C20.814 33.6269 22.926 33.7319 23.721 35.0519C24.45 36.2609 23.805 38.0579 24.783 39.0749C25.101 39.4049 25.53 39.5579 25.98 39.5699C26.34 39.5099 26.697 39.4349 27.048 39.3509C27.324 39.2249 27.579 39.0539 27.789 38.8409C28.572 38.0369 28.83 36.8639 28.935 35.7479L28.938 35.7449Z" fill="#93B1AF"/>
<path d="M26.25 14.5589C26.565 15.8759 27.903 16.8599 27.918 18.2159C27.927 19.0169 27.465 19.8779 27.861 20.5739C28.38 21.4859 29.775 21.1979 30.714 21.6629C31.29 21.9449 31.68 22.5149 32.25 22.8089C32.931 23.1629 33.828 23.0429 34.395 22.5239C34.554 22.3769 34.698 22.1999 34.902 22.1279C35.406 21.9539 35.871 22.5209 36.405 22.5479C36.825 22.5689 37.2 22.2299 37.344 21.8369C37.488 21.4409 37.455 21.0059 37.392 20.5889C37.062 18.3749 36.03 16.2869 34.536 14.6219C32.631 12.5459 30.15 11.0069 27.345 10.2599C27.156 11.6399 25.935 13.2149 26.256 14.5559L26.25 14.5589Z" fill="#93B1AF"/>
<path d="M34.41 27.5669C34.422 28.2119 34.596 28.8689 34.422 29.4899C34.332 29.8079 34.155 30.0959 34.008 30.3929C33.576 31.2659 33.402 32.2949 33.687 33.2249C33.864 33.8039 34.245 34.3319 34.737 34.6799C36.714 32.4299 38.031 29.5889 38.382 26.4509C37.65 26.1449 36.645 25.9559 35.259 25.9859C34.614 26.0009 34.395 26.9249 34.41 27.5699V27.5669Z" fill="#93B1AF"/>
<path d="M34.326 39.1709C37.3912 39.1709 39.876 36.6861 39.876 33.6209C39.876 30.5557 37.3912 28.0709 34.326 28.0709C31.2608 28.0709 28.776 30.5557 28.776 33.6209C28.776 36.6861 31.2608 39.1709 34.326 39.1709Z" fill="#17AED0"/>
<path d="M33.819 35.6879C33.744 35.6879 33.672 35.6609 33.618 35.6099L31.917 34.0619C31.794 33.9509 31.785 33.7619 31.896 33.6389C32.007 33.5159 32.196 33.5069 32.319 33.6179L33.795 34.9619L36.594 31.8029C36.705 31.6799 36.894 31.6679 37.017 31.7759C37.14 31.8869 37.152 32.0759 37.044 32.1989L34.044 35.5859C33.99 35.6459 33.915 35.6819 33.834 35.6879C33.828 35.6879 33.822 35.6879 33.819 35.6879Z" fill="white"/>
</g>
<defs>
<clipPath id="clip0_219_407">
<rect width="31.476" height="30.132" fill="white" transform="translate(8.39999 9.7019)"/>
</clipPath>
</defs>
</svg>
