<svg width="48" height="48" viewBox="0 0 48 48" fill="none" xmlns="http://www.w3.org/2000/svg">
<g clip-path="url(#clip0_219_299)">
<path d="M23.943 28.74V43.395L36.411 36.069L36.519 21.906L23.943 28.74Z" fill="#316E68"/>
<path d="M11.697 21.906L11.754 36.642L23.943 43.395V28.74L11.697 21.906Z" fill="#D2D2D2"/>
<path d="M7.2 27.069L20.859 33.9L23.943 28.74L11.754 21.906L7.2 27.069Z" fill="#93B1AF"/>
<path d="M26.994 33.9L23.943 28.74L36.519 21.906L40.683 26.904L26.994 33.9Z" fill="#93B1AF"/>
<path d="M23.943 15.477L11.754 21.906L23.943 28.74L24.138 28.635V15.576L23.943 15.477Z" fill="#316E68"/>
<path d="M24.138 15.576V28.635L36.519 21.906L24.138 15.576Z" fill="#316E68"/>
<path d="M22.341 5.49298L23.283 4.73998C23.688 4.41598 24.261 4.42198 24.66 4.75498L25.551 5.49898C27.411 7.04998 28.488 9.34498 28.488 11.766V21.033H19.278V11.865C19.278 9.38698 20.406 7.04098 22.341 5.49298V5.49298Z" fill="#D2D2D2"/>
<path d="M28.488 12.762L31.683 16.896V21.03H28.488V12.762Z" fill="#17AED0"/>
<path d="M19.278 12.762L16.083 16.896V21.03H19.278V12.762Z" fill="#17AED0"/>
<path d="M24.075 13.428C25.2398 13.428 26.184 12.4838 26.184 11.319C26.184 10.1543 25.2398 9.21002 24.075 9.21002C22.9102 9.21002 21.966 10.1543 21.966 11.319C21.966 12.4838 22.9102 13.428 24.075 13.428Z" fill="#316E68"/>
<path d="M21.783 22.695H20.883V25.395H21.783V22.695Z" fill="white"/>
<path d="M24.633 22.695H23.733V26.595H24.633V22.695Z" fill="white"/>
<path d="M27.483 22.695H26.583V25.395H27.483V22.695Z" fill="white"/>
</g>
<defs>
<clipPath id="clip0_219_299">
<rect width="33.483" height="38.895" fill="white" transform="translate(7.2 4.5)"/>
</clipPath>
</defs>
</svg>
