<svg width="48" height="49" viewBox="0 0 48 49" fill="none" xmlns="http://www.w3.org/2000/svg">
<path d="M35.2886 7.30188H37.2015L36.929 13.514H35.561L35.2886 7.30188Z" fill="#17AED0"/>
<path d="M36.2547 16.6201C36.7883 16.6201 37.2208 16.1856 37.2208 15.6495C37.2208 15.1134 36.7883 14.6788 36.2547 14.6788C35.7211 14.6788 35.2886 15.1134 35.2886 15.6495C35.2886 16.1856 35.7211 16.6201 36.2547 16.6201Z" fill="#17AED0"/>
<path d="M15.917 37.9722C16.3594 38.2276 16.9245 38.0771 17.1791 37.6361C17.4338 37.195 17.2816 36.6304 16.8392 36.375C16.3968 36.1196 15.8318 36.2701 15.5772 36.7112C15.3225 37.1522 15.4747 37.7168 15.917 37.9722Z" fill="#316E68"/>
<path d="M22.2196 38.5205L12.1304 32.6955C13.7389 29.9094 17.3014 28.9548 20.0875 30.5634C22.8736 32.1719 23.8282 35.7344 22.2196 38.5205Z" fill="#93B1AF"/>
<path d="M22.4207 16.5363L16.1796 27.3463C16.1796 27.3463 19.9834 20.7579 22.4207 16.5363Z" fill="#D2D2D2"/>
<path d="M29.2411 14.7088C26.8531 13.3301 23.7995 14.1483 22.4207 16.5363L16.1796 27.3463L24.8276 32.3392L31.0687 21.5292C32.4474 19.1412 31.6292 16.0876 29.2411 14.7088Z" fill="#D2D2D2"/>
<path d="M14.0869 11.965L11.5904 16.289L5.10447 12.5443L7.60092 8.22034L14.0869 11.965Z" fill="#316E68"/>
<path d="M11.3824 16.6493L8.88595 20.9733L2.39999 17.2286L4.89644 12.9046L11.3824 16.6493Z" fill="#316E68"/>
<path d="M20.9331 15.9177L18.4367 20.2417L11.9507 16.497L14.4472 12.173L20.9331 15.9177Z" fill="#316E68"/>
<path d="M18.2287 20.602L15.7322 24.926L9.24626 21.1813L11.7427 16.8573L18.2287 20.602Z" fill="#316E68"/>
<path d="M14.0869 11.965L11.5904 16.289L5.10447 12.5443L7.60092 8.22034L14.0869 11.965Z" fill="#316E68"/>
<path d="M11.3824 16.6493L8.88595 20.9733L2.39999 17.2286L4.89644 12.9046L11.3824 16.6493Z" fill="#316E68"/>
<path d="M20.9331 15.9177L18.4367 20.2417L11.9507 16.497L14.4472 12.173L20.9331 15.9177Z" fill="#316E68"/>
<path d="M18.2287 20.602L15.7322 24.926L9.24626 21.1813L11.7427 16.8573L18.2287 20.602Z" fill="#316E68"/>
<path d="M39.0537 26.1394L36.5573 30.4634L30.0713 26.7187L32.5678 22.3948L39.0537 26.1394Z" fill="#316E68"/>
<path d="M36.3492 30.8237L33.8528 35.1477L27.3668 31.403L29.8633 27.0791L36.3492 30.8237Z" fill="#316E68"/>
<path d="M45.9 30.0921L43.4036 34.4161L36.9176 30.6714L39.4141 26.3475L45.9 30.0921Z" fill="#316E68"/>
<path d="M43.1955 34.7764L40.6991 39.1004L34.2131 35.3557L36.7096 31.0318L43.1955 34.7764Z" fill="#316E68"/>
<path d="M39.0537 26.1394L36.5573 30.4634L30.0713 26.7187L32.5678 22.3948L39.0537 26.1394Z" fill="#316E68"/>
<path d="M36.3492 30.8237L33.8528 35.1477L27.3668 31.403L29.8633 27.0791L36.3492 30.8237Z" fill="#316E68"/>
<path d="M45.9 30.0921L43.4036 34.4161L36.9176 30.6714L39.4141 26.3475L45.9 30.0921Z" fill="#316E68"/>
<path d="M43.1955 34.7764L40.6991 39.1004L34.2131 35.3557L36.7096 31.0318L43.1955 34.7764Z" fill="#316E68"/>
<path d="M5.44426 29.7576L6.89999 30.5519L5.44426 31.3461L4.64999 32.8019L3.85317 31.3461L2.39999 30.5519L3.85317 29.7576L4.64999 28.3019L5.44426 29.7576Z" fill="#D2D2D2"/>
<path d="M21.5311 9.57391L22.5 10.0506L21.5311 10.5284L21 11.4012L20.4701 10.5284L19.5 10.0506L20.4701 9.57391L21 8.70117L21.5311 9.57391Z" fill="#316E68"/>
<path d="M30.3449 39.4592L31.8 40.2011L30.3449 40.9446L29.55 42.3011L28.7534 40.9446L27.3 40.2011L28.7534 39.4592L29.55 38.1011L30.3449 39.4592Z" fill="#93B1AF"/>
</svg>
