<svg width="48" height="48" viewBox="0 0 48 48" fill="none" xmlns="http://www.w3.org/2000/svg">
<path d="M5.17554 14.5151C5.73459 14.5151 6.18636 14.9686 6.18636 15.5236C6.18636 16.0785 5.73177 16.532 5.17554 16.532C4.6193 16.532 4.16471 16.0785 4.16471 15.5236C4.16471 14.9686 4.6193 14.5151 5.17554 14.5151ZM5.17554 13.9518C4.30589 13.9518 3.60001 14.656 3.60001 15.5236C3.60001 16.3911 4.30589 17.0953 5.17554 17.0953C6.04518 17.0953 6.75107 16.3911 6.75107 15.5236C6.75107 14.656 6.04518 13.9518 5.17554 13.9518Z" fill="#316E68"/>
<path d="M23.5821 9.86746C24.8187 9.86746 25.8212 8.86739 25.8212 7.63374C25.8212 6.40009 24.8187 5.40002 23.5821 5.40002C22.3455 5.40002 21.3431 6.40009 21.3431 7.63374C21.3431 8.86739 22.3455 9.86746 23.5821 9.86746Z" fill="#93B1AF"/>
<path d="M7.53317 28.3822L10.2353 33.0046H4.83105L7.53317 28.3822Z" fill="#93B1AF"/>
<path d="M38.2616 14.9743L39.0861 16.3855H37.4372L38.2616 14.9743ZM38.2616 13.856L36.4546 16.9489H40.0715L38.2645 13.856H38.2616Z" fill="#316E68"/>
<path d="M44.1 25.9344H39.9184V30.1061H44.1V25.9344Z" fill="#93B1AF"/>
<path d="M33.2949 13.5687H12.4008V40.8916H33.2949V13.5687Z" fill="#D2D2D2"/>
<path d="M40.1136 41.0099L35.8811 36.7875C36.9936 35.5763 37.6713 33.9651 37.6713 32.199C37.6713 28.4498 34.6134 25.3992 30.8553 25.3992C27.0971 25.3992 24.0393 28.4498 24.0393 32.199C24.0393 35.9481 27.0971 38.9987 30.8553 38.9987C32.2981 38.9987 33.6336 38.548 34.7376 37.7847L39.0435 42.0803C39.1903 42.2268 39.3851 42.3028 39.58 42.3028C39.7748 42.3028 39.9668 42.2296 40.1164 42.0803C40.4129 41.7845 40.4129 41.3057 40.1164 41.0127L40.1136 41.0099ZM25.5555 32.199C25.5555 29.2836 27.9329 26.9119 30.8553 26.9119C33.7776 26.9119 36.155 29.2836 36.155 32.199C36.155 35.1144 33.7776 37.4861 30.8553 37.4861C27.9329 37.4861 25.5555 35.1144 25.5555 32.199Z" fill="#17AED0"/>
<path opacity="0.24" d="M30.8553 37.4861C33.7822 37.4861 36.155 35.119 36.155 32.199C36.155 29.279 33.7822 26.9119 30.8553 26.9119C27.9283 26.9119 25.5555 29.279 25.5555 32.199C25.5555 35.119 27.9283 37.4861 30.8553 37.4861Z" fill="white"/>
</svg>
