<svg width="48" height="49" viewBox="0 0 48 49" fill="none" xmlns="http://www.w3.org/2000/svg">
<path d="M37.125 14.0519L25.125 9.05188C24.8125 8.92688 24.3125 8.80188 24 8.80188C23.625 8.80188 23.125 8.92688 22.8125 9.05188L10.8125 14.0519C9.6875 14.5519 9 15.6144 9 16.8019C9 32.9269 20.8125 40.8019 23.9375 40.8019C27.1875 40.8019 39 32.8019 39 16.8019C39 15.6144 38.25 14.5519 37.125 14.0519Z" fill="#17AED0"/>
<path d="M23.9375 40.8019C23.625 40.6769 24.3125 8.80188 24 8.80188C23.625 8.80188 23.125 8.92688 22.8125 9.05188L10.8125 14.0519C9.6875 14.5519 9 15.6144 9 16.8019C9 32.9269 20.8125 40.8019 23.9375 40.8019Z" fill="#D2D2D2"/>
<path d="M24.0456 30.6424C27.2622 30.6424 29.8697 28.0349 29.8697 24.8183C29.8697 21.6017 27.2622 18.9941 24.0456 18.9941C20.829 18.9941 18.2215 21.6017 18.2215 24.8183C18.2215 28.0349 20.829 30.6424 24.0456 30.6424Z" fill="white"/>
<path d="M23.5137 26.9875C23.435 26.9875 23.3595 26.9592 23.3028 26.9056L21.5178 25.2812C21.3887 25.1647 21.3793 24.9664 21.4957 24.8373C21.6122 24.7082 21.8106 24.6988 21.9396 24.8153L23.4885 26.2256L26.4258 22.9106C26.5423 22.7815 26.7406 22.7689 26.8697 22.8823C26.9988 22.9987 27.0114 23.1971 26.898 23.3262L23.7498 26.8805C23.6932 26.9434 23.6145 26.9812 23.5295 26.9875C23.5232 26.9875 23.5169 26.9875 23.5137 26.9875Z" fill="#17AED0"/>
<path fill-rule="evenodd" clip-rule="evenodd" d="M26.4258 22.9106C26.4262 22.9101 26.4267 22.9096 26.4272 22.9091C26.5438 22.7814 26.7411 22.7694 26.8697 22.8823C26.9988 22.9987 27.0114 23.1971 26.898 23.3262L23.7498 26.8805C23.7478 26.8827 23.7458 26.8849 23.7437 26.8871C23.6875 26.9461 23.6114 26.9814 23.5295 26.9875H23.5137C23.435 26.9875 23.3595 26.9592 23.3028 26.9056L21.5178 25.2812L21.5165 25.28C21.3886 25.1633 21.3796 24.9659 21.4957 24.8373C21.612 24.7085 21.8098 24.6988 21.9389 24.8146L21.9396 24.8153L23.4885 26.2256L26.4258 22.9106ZM23.4405 25.3304L25.9564 22.4909L25.9584 22.4888C26.3011 22.1089 26.8923 22.0642 27.2851 22.4091L27.2883 22.412L27.2915 22.4148C27.6714 22.7576 27.7161 23.3488 27.3712 23.7416L27.3694 23.7436L24.2195 27.2998L24.2178 27.3017C24.0496 27.4886 23.8183 27.5975 23.576 27.6154L23.5527 27.6171H23.514C23.2871 27.6171 23.0559 27.5358 22.8759 27.3685L21.0947 25.7475C20.7067 25.3961 20.681 24.8003 21.0283 24.4155C21.3795 24.0262 21.9762 24.0002 22.3615 24.3478L22.3635 24.3497L23.4405 25.3304Z" fill="#17AED0"/>
</svg>
