<svg width="48" height="48" viewBox="0 0 48 48" fill="none" xmlns="http://www.w3.org/2000/svg">
<path d="M18.8805 35.7054C12.9617 35.7054 7.80334 38.002 5.09998 41.4H32.661C29.9577 38.002 24.7993 35.7054 18.8805 35.7054Z" fill="#93B1AF"/>
<path d="M6.5438 35.8656L7.27511 36.7864C7.53304 37.1111 8.00405 37.1642 8.32715 36.905L12.4064 33.6318C12.7295 33.3725 12.7823 32.8991 12.5244 32.5743L11.7931 31.6535C11.5351 31.3287 11.0641 31.2756 10.741 31.5349L6.66181 34.8081C6.33871 35.0673 6.28587 35.5408 6.5438 35.8656Z" fill="#D2D2D2"/>
<path d="M15.474 26.2851L9.52008 31.0626C9.19698 31.3218 9.14415 31.7953 9.40208 32.1201L11.5429 34.8157C11.8009 35.1405 12.2719 35.1936 12.595 34.9343L18.5489 30.1568C18.872 29.8976 18.9249 29.4241 18.6669 29.0993L16.5261 26.4037C16.2681 26.0789 15.7971 26.0258 15.474 26.2851Z" fill="#D2D2D2"/>
<path d="M14.6593 26.3706L18.2829 30.9332C18.5408 31.258 19.0119 31.3111 19.335 31.0518L27.9135 24.1683C28.2366 23.9091 28.2895 23.4356 28.0315 23.1109L24.4079 18.5482C24.15 18.2234 23.679 18.1703 23.3559 18.4296L14.7773 25.3131C14.4542 25.5724 14.4014 26.0458 14.6593 26.3706Z" fill="#316E68"/>
<path d="M24.7388 15.5479L22.7297 17.16C22.4066 17.4193 22.3538 17.8927 22.6117 18.2175L27.9548 24.9452C28.2128 25.27 28.6838 25.3231 29.0069 25.0638L31.0159 23.4518C31.339 23.1925 31.3918 22.719 31.1339 22.3943L25.7908 15.6666C25.5329 15.3418 25.0619 15.2887 24.7388 15.5479Z" fill="#D2D2D2"/>
<path d="M33.2274 7.81757C30.6754 7.82099 28.6066 9.90044 28.6066 12.4673C28.6066 15.0341 30.6771 17.1169 33.2325 17.1169C35.7878 17.1169 37.8583 15.0358 37.8583 12.4673H33.2274V7.81757Z" fill="#17AED0"/>
<path d="M34.5918 6.60001H34.5867V11.2497H39.2177C39.2177 8.68117 37.1472 6.60001 34.5918 6.60001Z" fill="#17AED0"/>
<path d="M34.2823 28.2204L39.6261 30.0588L43.124 25.1714" stroke="#93B1AF" stroke-width="0.6" stroke-miterlimit="10"/>
<path d="M30.6857 33.3592C31.4224 33.3592 32.0196 32.7589 32.0196 32.0185C32.0196 31.278 31.4224 30.6778 30.6857 30.6778C29.9491 30.6778 29.3519 31.278 29.3519 32.0185C29.3519 32.7589 29.9491 33.3592 30.6857 33.3592Z" fill="#93B1AF"/>
<path d="M34.2704 27.8117L30.6348 31.774" stroke="#93B1AF" stroke-width="0.6" stroke-miterlimit="10"/>
<path d="M34.3231 29.5047C35.0598 29.5047 35.657 28.9044 35.657 28.164C35.657 27.4236 35.0598 26.8233 34.3231 26.8233C33.5865 26.8233 32.9893 27.4236 32.9893 28.164C32.9893 28.9044 33.5865 29.5047 34.3231 29.5047Z" fill="#93B1AF"/>
<path d="M39.638 31.461C40.3747 31.461 40.9718 30.8608 40.9718 30.1203C40.9718 29.3799 40.3747 28.7796 39.638 28.7796C38.9014 28.7796 38.3042 29.3799 38.3042 30.1203C38.3042 30.8608 38.9014 31.461 39.638 31.461Z" fill="#93B1AF"/>
<path d="M43.0661 26.3103C43.8028 26.3103 44.3999 25.71 44.3999 24.9696C44.3999 24.2291 43.8028 23.6289 43.0661 23.6289C42.3295 23.6289 41.7323 24.2291 41.7323 24.9696C41.7323 25.71 42.3295 26.3103 43.0661 26.3103Z" fill="#93B1AF"/>
<path d="M19.8437 30.4983V38.4929" stroke="#D2D2D2" stroke-width="0.6" stroke-miterlimit="10"/>
<path d="M16.6605 38.6297L19.8437 34.0467L23.2003 38.7391" stroke="#D2D2D2" stroke-width="0.6" stroke-miterlimit="10"/>
<path d="M19.8437 35.1309C20.4394 35.1309 20.9223 34.6455 20.9223 34.0467C20.9223 33.4479 20.4394 32.9625 19.8437 32.9625C19.248 32.9625 18.7651 33.4479 18.7651 34.0467C18.7651 34.6455 19.248 35.1309 19.8437 35.1309Z" fill="#D2D2D2"/>
</svg>
