<svg width="48" height="48" viewBox="0 0 48 48" fill="none" xmlns="http://www.w3.org/2000/svg">
<path d="M28.6242 13.7789C34.5657 16.008 38.8794 19.4361 38.8941 21.7919C39.7834 18.9826 39.6786 15.8482 38.3632 12.9545C35.5376 6.73721 28.2053 3.98665 21.9845 6.80882C19.2121 8.06659 17.1306 10.2222 15.9235 12.7727C17.8122 11.3295 23.0225 11.6765 28.6223 13.7771L28.6242 13.7789Z" fill="#D2D2D2"/>
<path d="M41.9402 25.5043C43.1584 22.2601 36.8338 16.8877 27.8138 13.5046C18.7939 10.1215 10.4942 10.0089 9.27604 13.2531C8.05787 16.4973 14.3825 21.8698 23.4024 25.2529C32.4224 28.6359 40.7221 28.7485 41.9402 25.5043Z" fill="#17AED0"/>
<path d="M36.297 23.9536C37.0567 21.9303 32.8456 18.4797 26.8912 16.2464C20.9368 14.0132 15.4939 13.8429 14.7342 15.8661C13.9745 17.8893 18.1856 21.3399 24.14 23.5732C30.0945 25.8065 35.5373 25.9768 36.297 23.9536Z" fill="white"/>
<path opacity="0.5" d="M17.5536 15.8152L3.60001 29.6047L4.88789 31.0571C11.5423 38.556 21.285 42.5699 31.2941 41.9345L33.6641 21.8598" fill="#D2D2D2"/>
<rect width="3.4902" height="3.4892" transform="matrix(0.866149 0.499786 -0.500214 0.865902 12.9735 29.8494)" fill="#316E68"/>
<rect width="3.49057" height="3.48883" transform="matrix(0.96704 -0.254625 0.254897 0.966968 17.9983 27.0379)" fill="#D2D2D2"/>
<path d="M22.523 33.9766H26.7486V38.1998H22.523V33.9766Z" fill="#93B1AF"/>
</svg>
